<?xml version="1.0" encoding="UTF-8" standalone="no"?>
<!-- Created with Inkscape (http://www.inkscape.org/) -->

<svg
   xmlns:dc="http://purl.org/dc/elements/1.1/"
   xmlns:cc="http://creativecommons.org/ns#"
   xmlns:rdf="http://www.w3.org/1999/02/22-rdf-syntax-ns#"
   xmlns:svg="http://www.w3.org/2000/svg"
   xmlns="http://www.w3.org/2000/svg"
   xmlns:sodipodi="http://sodipodi.sourceforge.net/DTD/sodipodi-0.dtd"
   xmlns:inkscape="http://www.inkscape.org/namespaces/inkscape"
   width="210mm"
   height="297mm"
   viewBox="0 0 210 297"
   version="1.1"
   id="svg9123"
   inkscape:version="0.92.3 (2405546, 2018-03-11)"
   sodipodi:docname="alzofuycile1.svg">
  <defs
     id="defs9117" />
  <sodipodi:namedview
     id="base"
     pagecolor="#ffffff"
     bordercolor="#666666"
     borderopacity="1.0"
     inkscape:pageopacity="0.0"
     inkscape:pageshadow="2"
     inkscape:zoom="2.8"
     inkscape:cx="396.6989"
     inkscape:cy="668.63333"
     inkscape:document-units="mm"
     inkscape:current-layer="layer1"
     showgrid="false"
     inkscape:window-width="1920"
     inkscape:window-height="1046"
     inkscape:window-x="-11"
     inkscape:window-y="-11"
     inkscape:window-maximized="1" />
  <metadata
     id="metadata9120">
    <rdf:RDF>
      <cc:Work
         rdf:about="">
        <dc:format>image/svg+xml</dc:format>
        <dc:type
           rdf:resource="http://purl.org/dc/dcmitype/StillImage" />
        <dc:title></dc:title>
      </cc:Work>
    </rdf:RDF>
  </metadata>
  <g
     inkscape:label="Layer 1"
     inkscape:groupmode="layer"
     id="layer1">
    <path
       style="display:inline;fill:#ff5555;stroke:#ff5555;stroke-width:0.26458332px;stroke-linecap:butt;stroke-linejoin:miter;stroke-opacity:1"
       d="m 89.905813,111.95818 -0.0603,2.25115 6.271056,-0.0201 -0.0402,-2.49234 z"
       id="path930"
       inkscape:connector-curvature="0"
       inkscape:export-xdpi="96"
       inkscape:export-ydpi="96" />
    <path
       style="display:inline;fill:none;stroke:#000000;stroke-width:0.26458332px;stroke-linecap:butt;stroke-linejoin:miter;stroke-opacity:1"
       d="m 86.499852,109.4032 c 1.33573,-1.3889 2.14294,-0.21693 3.401786,0.25986 1.35657,2.19152 3.486769,3.98777 3.874258,6.11849 -1.097995,-0.41911 -0.99744,-0.37306 -2.220612,0.0473 z"
       id="path970"
       inkscape:connector-curvature="0"
       sodipodi:nodetypes="ccccc"
       inkscape:export-xdpi="96"
       inkscape:export-ydpi="96" />
    <path
       style="display:inline;opacity:1;fill:#501616;fill-opacity:1;stroke:#803300;stroke-width:0.08047857;stroke-linejoin:round;stroke-miterlimit:4;stroke-dasharray:none;stroke-opacity:1;paint-order:markers fill stroke"
       d="m 97.709516,141.41583 c -0.466188,-0.0573 -1.065951,-0.22098 -1.38543,-0.37805 -0.651163,-0.32013 -0.916228,-0.81657 -0.763479,-1.42994 0.1393,-0.55936 0.57395,-1.23991 1.251384,-1.95936 l 0.351748,-0.37355 -0.09584,-0.10474 c -0.110617,-0.12088 -0.126013,-0.12293 0.356494,0.0474 0.319879,0.11294 0.951299,0.22093 1.293969,0.2213 0.120309,1.3e-4 0.420023,0.0206 0.666035,0.0456 0.440727,0.0447 0.448631,0.0473 0.538041,0.17778 0.146442,0.21371 0.827592,0.85212 1.391122,1.30382 1.0827,0.86785 1.38055,1.23954 1.22547,1.52931 -0.16394,0.30632 -1.2181,0.69008 -2.37115,0.86319 -0.539523,0.081 -1.990332,0.11478 -2.458361,0.0572 z"
       id="path948"
       inkscape:connector-curvature="0"
       inkscape:export-xdpi="96"
       inkscape:export-ydpi="96" />
    <path
       style="display:inline;opacity:1;fill:#4f6f57;fill-opacity:1;stroke:#803300;stroke-width:0.02853874;stroke-linejoin:round;stroke-miterlimit:4;stroke-dasharray:none;stroke-opacity:1;paint-order:markers fill stroke"
       d="m 91.042175,138.43243 c -0.101622,-0.0302 -0.363842,-0.0692 -0.582713,-0.0866 -1.743412,-0.13922 -2.959812,-0.50058 -3.553016,-1.05549 -0.33102,-0.30965 -0.394891,-0.55124 -0.393449,-1.48819 0.0011,-0.69284 0.04326,-0.99536 0.303475,-2.17545 0.278998,-1.2653 0.340902,-1.69249 0.374708,-2.58575 0.02958,-0.78161 0.113482,-1.20468 0.524267,-2.64353 0.534005,-1.87045 0.701939,-2.7207 0.731885,-3.70557 l 0.0163,-0.53618 0.173588,0.019 c 0.658976,0.0721 1.607449,0.36258 2.575081,0.78861 0.746128,0.3285 1.961748,0.94036 1.961782,0.98743 1.14e-4,0.15366 0.0667,1.85653 0.113464,2.90152 0.156446,3.49563 0.132728,5.38652 -0.0864,6.88856 -0.21282,1.45877 -0.633246,2.36028 -1.235154,2.64852 -0.146735,0.0703 -0.210243,0.0828 -0.454803,0.0898 -0.216596,0.006 -0.328224,-0.005 -0.469011,-0.0467 z"
       id="path981"
       inkscape:connector-curvature="0"
       inkscape:export-xdpi="96"
       inkscape:export-ydpi="96" />
    <path
       style="display:inline;opacity:1;fill:#501616;fill-opacity:1;stroke:#803300;stroke-width:0.02853874;stroke-linejoin:round;stroke-miterlimit:4;stroke-dasharray:none;stroke-opacity:1;paint-order:markers fill stroke"
       d="m 87.24743,141.20004 c -1.857668,-0.0818 -3.220556,-0.31838 -3.511671,-0.60949 -0.239451,-0.23945 0.283403,-0.65544 1.440886,-1.14639 0.200906,-0.0852 0.640294,-0.25767 0.976421,-0.38323 0.998686,-0.37306 0.948682,-0.34785 0.973037,-0.49051 0.01458,-0.0855 0.01035,-0.12854 -0.01421,-0.14371 -0.02703,-0.0167 -0.02043,-0.0782 0.02888,-0.26898 0.03515,-0.13604 0.06849,-0.25191 0.07408,-0.2575 0.0056,-0.006 0.09835,0.0294 0.206132,0.0778 0.764296,0.34304 1.837145,0.57217 3.123737,0.66714 0.140705,0.0104 0.348057,0.0439 0.46078,0.0745 0.112723,0.0306 0.299069,0.0582 0.414099,0.0613 l 0.209145,0.006 0.03195,0.17055 c 0.02037,0.10878 0.113935,0.33528 0.258302,0.62535 0.256151,0.51467 0.303702,0.64961 0.277717,0.78812 -0.07281,0.3881 -0.969094,0.66264 -2.575803,0.78899 -0.396674,0.0312 -1.972659,0.058 -2.37349,0.0403 z"
       id="path983"
       inkscape:connector-curvature="0"
       inkscape:export-xdpi="96"
       inkscape:export-ydpi="96" />
    <path
       style="display:inline;opacity:1;fill:#4f6f57;fill-opacity:1;stroke:#803300;stroke-width:0.02853874;stroke-linejoin:round;stroke-miterlimit:4;stroke-dasharray:none;stroke-opacity:1;paint-order:markers fill stroke"
       d="m 100.63563,137.32201 c -0.15634,-0.0137 -0.59125,-0.0567 -0.966457,-0.0957 -0.37521,-0.0389 -0.880464,-0.0841 -1.122788,-0.10032 -1.844233,-0.12348 -2.756683,-1.0865 -3.018473,-3.18574 -0.06521,-0.52295 -0.04757,-2.49289 0.03335,-3.72368 0.05094,-0.77478 0.06864,-1.30205 0.06988,-2.08211 7.93e-4,-0.57452 0.0033,-1.0446 0.0054,-1.04462 0.0021,-2e-5 0.09159,0.0335 0.198975,0.0744 1.169773,0.44596 1.999456,0.61867 2.894197,0.60247 l 0.492686,-0.009 0.335256,0.76748 c 1.951974,4.46848 2.628944,7.36074 1.999374,8.54195 -0.049,0.0919 -0.11235,0.18819 -0.14077,0.21392 -0.065,0.0589 -0.38389,0.0755 -0.78063,0.0408 z"
       id="path989"
       inkscape:connector-curvature="0"
       inkscape:export-xdpi="96"
       inkscape:export-ydpi="96" />
    <path
       style="display:inline;fill:none;stroke:#000000;stroke-width:0.26458332px;stroke-linecap:butt;stroke-linejoin:miter;stroke-opacity:1"
       d="m 88.31631,123.99729 c 0.122726,2.70182 -1.272884,5.19394 -1.269529,6.94901"
       id="path893"
       inkscape:connector-curvature="0"
       inkscape:export-xdpi="96"
       inkscape:export-ydpi="96"
       sodipodi:nodetypes="cc" />
    <path
       style="display:inline;fill:none;stroke:#000000;stroke-width:0.26458332px;stroke-linecap:butt;stroke-linejoin:miter;stroke-opacity:1"
       d="m 87.046781,130.9463 c -0.01344,2.3372 -0.905291,3.45237 -0.64373,5.67568"
       id="path901"
       inkscape:connector-curvature="0"
       inkscape:export-xdpi="96"
       inkscape:export-ydpi="96"
       sodipodi:nodetypes="cc" />
    <path
       style="display:inline;fill:none;stroke:#000000;stroke-width:0.26458332px;stroke-linecap:butt;stroke-linejoin:miter;stroke-opacity:1"
       d="m 86.403051,136.62198 c 0.114776,1.76731 4.41158,1.89152 4.41158,1.89152 3.802979,1.39372 2.512984,-8.68026 2.512984,-12.71213"
       id="path903"
       inkscape:connector-curvature="0"
       inkscape:export-xdpi="96"
       inkscape:export-ydpi="96"
       sodipodi:nodetypes="csc" />
    <path
       style="display:inline;fill:none;stroke:#000000;stroke-width:0.26458332px;stroke-linecap:butt;stroke-linejoin:miter;stroke-opacity:1"
       d="m 95.46577,126.92028 c 0.352192,4.08922 -1.807834,10.37367 3.474506,10.37367 0.304977,0 2.347304,0.32539 2.539064,0.13364 1.7631,-1.7631 -2.189515,-9.74646 -2.166095,-9.83429"
       id="path905"
       inkscape:connector-curvature="0"
       sodipodi:nodetypes="cscc"
       inkscape:export-xdpi="96"
       inkscape:export-ydpi="96" />
    <path
       style="display:inline;fill:none;stroke:#000000;stroke-width:0.26458332px;stroke-linecap:butt;stroke-linejoin:miter;stroke-opacity:1"
       d="m 97.166782,137.03576 c -5.939258,5.85438 5.571308,4.91098 5.571308,3.32574 0,-0.93019 -2.28101,-1.60853 -2.7288,-3.04149"
       id="path911"
       inkscape:connector-curvature="0"
       inkscape:export-xdpi="96"
       inkscape:export-ydpi="96"
       sodipodi:nodetypes="csc" />
    <path
       style="display:inline;fill:none;stroke:#000000;stroke-width:0.26458332px;stroke-linecap:butt;stroke-linejoin:miter;stroke-opacity:1"
       d="m 87.189592,137.57584 c -0.611003,1.4557 0.185135,0.80282 -0.312676,1.05173 -0.452982,0.22649 -4.034287,1.28119 -3.240455,2.07503 0.777832,0.77783 7.554721,0.97278 8.555936,-0.0284 0.553006,-0.55301 -0.520806,-1.32201 -0.397948,-2.01818"
       id="path978"
       inkscape:connector-curvature="0"
       sodipodi:nodetypes="ccccc"
       inkscape:export-xdpi="96"
       inkscape:export-ydpi="96" />
    <path
       style="display:inline;opacity:1;fill:#803300;fill-opacity:1;stroke:#000000;stroke-width:0.26855209;stroke-linejoin:round;stroke-miterlimit:4;stroke-dasharray:none;stroke-opacity:1;paint-order:markers fill stroke"
       d="m 89.199421,112.57185 c -1.310018,-1.665 -2.401782,-3.05996 -2.426139,-3.09992 -0.05187,-0.0851 0.113805,-0.24166 0.447614,-0.42298 0.156596,-0.0851 0.324755,-0.12311 0.540075,-0.12217 0.333637,0.001 0.48378,0.0611 1.474423,0.58539 0.535088,0.28321 0.537548,0.28552 1.009676,0.94592 0.260305,0.36412 0.749924,1.01105 1.088041,1.43763 1.238094,1.56205 1.745027,2.33735 2.056662,3.14544 0.09345,0.24232 0.169907,0.45152 0.169907,0.46488 0,0.0134 -0.15989,-0.0258 -0.355314,-0.0871 -0.396836,-0.12436 -0.639263,-0.10971 -1.162286,0.0702 -0.17567,0.0604 -0.351218,0.10989 -0.390104,0.10989 -0.03889,0 -1.142534,-1.36226 -2.452555,-3.02726 z"
       id="path987"
       inkscape:connector-curvature="0"
       inkscape:export-xdpi="96"
       inkscape:export-ydpi="96" />
    <path
       inkscape:export-ydpi="96"
       inkscape:export-xdpi="96"
       sodipodi:nodetypes="cssssscccssssscc"
       inkscape:connector-curvature="0"
       id="path1409-8"
       d="m 83.252192,103.45958 c 0,0 0.1158,1.58202 0.33409,2.33861 0.18932,0.65619 0.47182,1.29264 0.83521,1.87088 0.40363,0.64228 0.91807,1.21685 1.46998,1.73726 0.48615,0.45839 1.04521,0.8358 1.60362,1.20271 0.60028,0.39442 1.20157,0.80846 1.87089,1.06908 0.70237,0.27348 2.20497,0.50113 2.20497,0.50113 l 1.60362,0.13363 1.87089,-0.0334 c 0,0 1.74801,-0.49527 2.57247,-0.86862 0.66815,-0.30258 1.30779,-0.67569 1.904291,-1.10249 0.564857,-0.40417 1.139637,-0.82475 1.570207,-1.36976 0.4601,-0.58239 0.76218,-1.28112 1.03567,-1.97111 0.22997,-0.58021 0.4309,-1.18391 0.50113,-1.80407 0.0552,-0.48739 -0.0668,-1.46998 -0.0668,-1.46998 z"
       style="display:inline;fill:#ff8080;fill-opacity:1;stroke:#ff8080;stroke-width:0.26458332px;stroke-linecap:butt;stroke-linejoin:miter;stroke-opacity:1" />
    <path
       inkscape:export-ydpi="96"
       inkscape:export-xdpi="96"
       inkscape:connector-curvature="0"
       id="path1672-4"
       d="m 83.252192,101.87208 c -0.58954,-0.10184 0.25507,3.36027 0.16948,3.36027 -0.23053,0 0.0754,-0.45536 0.0945,-0.68508 0.0678,-0.81297 0.0473,-1.65013 0.0473,-2.45685 0,-0.21597 0.05,3.3045 0.18899,3.16555 0.739,-0.739 0.44884,-2.57205 0.44884,-2.55134 0,0.25796 0.0781,2.83482 0.0945,2.83482 0.1175,0 0.087,-2.57496 0.11812,-2.57496 0.91399,0 -0.81949,2.74033 0.0945,2.74033 0.57364,0 0.62212,-3.09468 0.61421,-3.09468 -0.0881,0 -0.0473,1.47534 -0.0473,1.55915 0,0.40978 -0.2425,1.51818 0.0473,1.22842 0.56011,-0.56011 -0.19137,-3.7349 0.25986,-3.28367 0.33267,0.33267 -0.16157,2.60885 -0.188991,3.04744 -0.026,0.41661 0.441051,1.25205 0.0236,1.25205 -0.45261,0 -2.149999,-5.17356 -1.464649,-5.17356 0.313989,0 -0.32083,5.04172 0.0236,5.38617 0.0534,0.0534 -0.23623,-4.16172 -0.23623,-3.99238 0,0.86622 0.44884,1.82389 0.44884,2.71671 0,0.34647 -0.34648,1.03943 0,1.03943 0.30051,0 0.0819,-2.19699 0.21261,-2.19699 0.69269,0 0.12171,1.38783 0.30711,2.05525"
       style="display:inline;fill:#501616;stroke:#501616;stroke-width:0.26458332px;stroke-linecap:butt;stroke-linejoin:miter;stroke-opacity:1" />
    <path
       inkscape:export-ydpi="96"
       inkscape:export-xdpi="96"
       inkscape:connector-curvature="0"
       id="path1674-3"
       d="m 101.28104,102.23216 c 0.29676,6.57894 0.42522,2.98832 0.42522,-1.01581 0,-0.12129 0.0613,4.86666 0.33073,4.4176 0.88336,-1.47225 -0.40748,-4.37035 0.16537,-4.37035 0.15331,0 -0.17092,4.82475 0.0945,4.55934 1.15427,-1.15427 -0.0209,-4.39398 0.44885,-4.39398 0.0613,0 -0.0602,4.30709 0.0709,4.11049 0.25887,-0.38831 0.8386,-4.66566 0.3071,-5.19717 -0.63234,-0.63234 0.38427,5.25309 -0.44884,5.66964 -0.25888,0.12944 -0.55257,-0.37452 -0.66147,-0.51971 -0.35468,-0.47292 -0.21261,-1.406 -0.21261,-1.96075 0,-3.25721 1.75101,-3.32075 1.01582,-2.29149 -0.39875,0.55825 -1.07146,0.89848 -1.32292,1.27567"
       style="display:inline;fill:#501616;stroke:#501616;stroke-width:0.26458332px;stroke-linecap:butt;stroke-linejoin:miter;stroke-opacity:1" />
    <path
       inkscape:export-ydpi="96"
       inkscape:export-xdpi="96"
       inkscape:connector-curvature="0"
       id="path1423-9"
       d="m 81.815622,100.61984 c -1.04119,0.0187 -1.49221,1.60917 -2.6727,1.9043 -1.59717,0.39929 -4.22223,0.17978 -5.24516,1.20271 -0.081,0.081 2.18285,2.23556 2.83974,2.07134 1.59704,-0.39926 2.24177,-2.24008 3.57472,-2.90656 0.63071,-0.31535 1.92428,-0.0265 2.23839,-0.96885 0.24083,-0.72249 -0.35086,-0.9779 -0.73499,-1.30294"
       style="display:inline;fill:#501616;stroke:#000000;stroke-width:0.26458332px;stroke-linecap:butt;stroke-linejoin:miter;stroke-opacity:1" />
    <path
       inkscape:export-ydpi="96"
       inkscape:export-xdpi="96"
       inkscape:connector-curvature="0"
       id="path1431-8"
       d="m 109.12971,104.45196 c -0.54901,-0.0738 -1.17597,-0.31106 -2.95666,-1.11912 -0.98682,-0.4478 -1.51741,-0.67177 -1.82077,-0.76856 -0.10106,-0.0322 -0.19639,-0.0659 -0.21182,-0.0747 -0.0154,-0.009 0.17445,-0.22108 0.422,-0.47162 0.54658,-0.55324 0.61512,-0.67421 0.70827,-1.25016 l 0.0204,-0.12645 0.29669,0.27679 c 0.32932,0.30721 0.58165,0.4742 0.85071,0.56296 0.42322,0.13963 0.60601,0.14862 2.79971,0.13776 1.15303,-0.006 2.0964,-0.003 2.0964,0.006 0,0.0417 -1.1034,1.94752 -1.29221,2.23198 -0.23026,0.34691 -0.47054,0.5958 -0.57519,0.5958 -0.0357,0 -0.0848,0.005 -0.10934,0.0122 -0.0245,0.007 -0.12718,0.001 -0.22824,-0.0125 z"
       style="display:inline;opacity:1;fill:#501616;fill-opacity:1;stroke:#000000;stroke-width:0.10022607;stroke-linejoin:round;stroke-miterlimit:4;stroke-dasharray:none;stroke-opacity:1;paint-order:markers fill stroke" />
    <path
       inkscape:export-ydpi="96"
       inkscape:export-xdpi="96"
       inkscape:connector-curvature="0"
       id="path1433-8"
       d="m 76.329242,105.55543 c -0.44755,-0.21173 -1.19112,-0.7768 -1.8708,-1.42172 -0.43867,-0.41623 -0.43819,-0.39152 -0.0119,-0.61078 0.58095,-0.29878 1.16872,-0.41964 2.87808,-0.59179 1.4178,-0.14279 1.87833,-0.23115 2.2826,-0.43794 0.20534,-0.10503 0.33327,-0.21725 0.89122,-0.78177 0.35831,-0.36253 0.71764,-0.70599 0.79852,-0.76326 l 0.14704,-0.10412 0.15815,0.33005 c 0.131,0.27337 0.28252,0.52325 0.58343,0.96213 0.0253,0.0369 0.009,0.0685 -0.0668,0.12986 -0.15003,0.12145 -0.44177,0.20506 -1.03567,0.29681 -0.63855,0.0987 -0.77915,0.14359 -1.09524,0.34999 -0.35618,0.23258 -0.66239,0.52101 -1.22637,1.15517 -0.86845,0.9765 -1.29781,1.32857 -1.8534,1.51972 -0.25919,0.0892 -0.3304,0.0852 -0.57887,-0.0323 z"
       style="display:inline;opacity:1;fill:#4f6f57;fill-opacity:1;stroke:#000000;stroke-width:0.10022607;stroke-linejoin:round;stroke-miterlimit:4;stroke-dasharray:none;stroke-opacity:1;paint-order:markers fill stroke" />
    <path
       inkscape:export-ydpi="96"
       inkscape:export-xdpi="96"
       sodipodi:nodetypes="cssssssssssssssssssssssssssc"
       inkscape:connector-curvature="0"
       id="path1402-4"
       d="m 81.815622,100.61984 c 0.25895,0.76121 0.73414,1.3096 1.23612,1.93771 0.39439,0.49349 0.98589,0.99388 1.43657,1.43657 0.48521,0.4766 1.00826,0.9198 1.57021,1.30294 0.6095,0.41555 1.27405,0.74699 1.9377,1.06908 0.48938,0.2375 0.99234,0.44842 1.50339,0.63476 0.6023,0.21961 1.20688,0.45249 1.83748,0.56795 0.87804,0.16077 1.7819,0.22432 2.6727,0.16704 0.99605,-0.064 2.00184,-0.22715 2.93996,-0.56794 0.99326,-0.36083 1.90053,-0.94041 2.77292,-1.5368 0.776878,-0.53109 1.457028,-1.19167 2.171568,-1.80407 0.77874,-0.66743 1.59278,-1.30013 2.3052,-2.03793 0.34071,-0.35286 0.54933,-0.41904 0.63476,-0.90204 0.21594,-1.220827 -0.43461,-2.626894 -0.90202,-3.775181 -0.44897,-1.102919 -0.99036,-2.149227 -1.53681,-3.207235 -0.61802,-1.196569 -1.24999,-2.392383 -2.00452,-3.507913 -0.652858,-0.965207 -1.286138,-1.981979 -2.171568,-2.739512 -0.7389,-0.632171 -1.60411,-1.169187 -2.53906,-1.436574 -0.76087,-0.217603 -1.58302,-0.161562 -2.37201,-0.100226 -0.8492,0.06602 -1.70587,0.208162 -2.50566,0.50113 -0.90799,0.332605 -1.70872,0.688415 -2.50565,1.236122 -0.75558,0.519294 -1.40916,1.103137 -2.07134,1.737252 -0.66602,0.6378 -1.40555,1.485264 -1.9377,2.238382 -0.4801,0.679442 -0.83835,1.441694 -1.16931,2.204973 -0.31382,0.723757 -0.55172,1.479857 -0.7684,2.238384 -0.23224,0.813026 -0.48018,1.631262 -0.56794,2.472243 -0.0647,0.62036 -0.16747,1.280395 0.0334,1.870885 z"
       style="display:inline;fill:#501616;stroke:#000000;stroke-width:0.79374999;stroke-linecap:butt;stroke-linejoin:miter;stroke-miterlimit:4;stroke-dasharray:none;stroke-opacity:1" />
    <path
       inkscape:export-ydpi="96"
       inkscape:export-xdpi="96"
       inkscape:connector-curvature="0"
       id="path1419-5"
       d="m 92.690702,107.32418 c -1.02063,-0.0701 -1.69942,-0.21837 -2.7584,-0.6027 -0.88766,-0.32215 -1.23101,-0.46912 -2.10063,-0.89911 -0.85856,-0.42453 -1.33694,-0.70718 -1.87948,-1.1105 -0.494091,-0.36728 -0.71473,-0.56311 -1.638851,-1.45449 -1.186179,-1.14418 -1.844619,-2.01014 -2.114369,-2.78076 -0.0665,-0.19006 -0.0758,-0.27969 -0.074,-0.718285 0.004,-1.046477 0.23241,-2.157928 0.85092,-4.142679 0.39935,-1.281451 1.05736,-2.695689 1.644399,-3.534231 0.724541,-1.034947 1.796921,-2.177872 2.960871,-3.155639 0.97816,-0.821705 1.76007,-1.288682 2.94025,-1.756004 0.88472,-0.350329 1.50452,-0.501633 2.50803,-0.612253 0.63774,-0.0703 1.88502,-0.08142 2.21062,-0.01971 1.16684,0.221145 2.569711,1.119308 3.48163,2.229059 0.71647,0.871902 1.796658,2.515405 2.518378,3.831706 1.76321,3.215788 2.9892,6.009563 3.18115,7.249262 0.0532,0.343614 0.0279,1.013084 -0.0434,1.146614 -0.0577,0.10812 -0.80018,0.84788 -1.26165,1.25703 -0.15617,0.13848 -0.58465,0.5054 -0.95215,0.81538 -0.36748,0.30998 -0.92176,0.78644 -1.23168,1.05881 -0.92853,0.81596 -1.357965,1.13948 -2.292925,1.72742 -0.91716,0.57674 -1.78506,0.96041 -2.65599,1.17411 -1.02279,0.25097 -2.2934,0.36557 -3.29269,0.29698 z"
       style="display:inline;opacity:1;fill:#4f6f57;fill-opacity:1;stroke:#4f6f57;stroke-width:0.10022607;stroke-linejoin:round;stroke-miterlimit:4;stroke-dasharray:none;stroke-opacity:1;paint-order:markers fill stroke" />
    <path
       inkscape:export-ydpi="96"
       inkscape:export-xdpi="96"
       inkscape:connector-curvature="0"
       id="path1427-2"
       d="m 103.93218,102.59095 c 1.3293,0.30244 4.57502,2.26393 5.61265,2.00453 0.63659,-0.15915 1.94372,-3.30746 2.30521,-3.30746 0.14476,0 -0.25615,0.16704 -0.40091,0.16704 -1.13443,0 -2.3063,0.0334 -3.4411,0.0334 -1.76748,0 -1.83298,-0.19597 -2.70611,-1.06908 -0.36516,-0.36516 -1.44216,1.93987 -1.36974,2.17156 z"
       style="display:inline;fill:#4f6f57;fill-opacity:1;stroke:#000000;stroke-width:0.26458332px;stroke-linecap:butt;stroke-linejoin:miter;stroke-opacity:1" />
    <path
       style="display:inline;fill:#501616;stroke:#501616;stroke-width:0.26458332px;stroke-linecap:butt;stroke-linejoin:miter;stroke-opacity:1"
       d="m 83.252189,101.87208 c -0.589535,-0.10184 0.255073,3.36027 0.16948,3.36027 -0.230523,0 0.07535,-0.45536 0.09449,-0.68508 0.06775,-0.81297 0.04725,-1.65013 0.04725,-2.45685 0,-0.21597 0.05004,3.3045 0.188989,3.16555 0.739,-0.739 0.448847,-2.57205 0.448847,-2.55134 0,0.25796 0.07806,2.83482 0.09449,2.83482 0.117496,0 0.08695,-2.57496 0.118118,-2.57496 0.913984,0 -0.819492,2.74033 0.09449,2.74033 0.573638,0 0.622115,-3.09468 0.614212,-3.09468 -0.08814,0 -0.04725,1.47534 -0.04725,1.55915 0,0.40978 -0.242509,1.51818 0.04725,1.22842 0.560109,-0.56011 -0.191374,-3.7349 0.259857,-3.28367 0.332669,0.33267 -0.161575,2.60885 -0.188988,3.04744 -0.02604,0.41661 0.441046,1.25205 0.02363,1.25205 -0.452612,0 -2.15,-5.17356 -1.464655,-5.17356 0.313993,0 -0.320826,5.04172 0.02363,5.38617 0.05337,0.0534 -0.236233,-4.16172 -0.236233,-3.99238 0,0.86622 0.448847,1.82389 0.448847,2.71671 0,0.34647 -0.34648,1.03943 0,1.03943 0.300511,0 0.0819,-2.19699 0.212611,-2.19699 0.692687,0 0.121711,1.38783 0.307104,2.05525"
       id="path1672"
       inkscape:connector-curvature="0"
       inkscape:export-xdpi="96"
       inkscape:export-ydpi="96" />
    <path
       style="display:inline;fill:#501616;stroke:#501616;stroke-width:0.26458332px;stroke-linecap:butt;stroke-linejoin:miter;stroke-opacity:1"
       d="m 101.28104,102.23216 c 0.29676,6.57894 0.42522,2.98832 0.42522,-1.01581 0,-0.12129 0.0613,4.86666 0.33073,4.4176 0.88335,-1.47225 -0.40748,-4.37035 0.16537,-4.37035 0.15331,0 -0.17092,4.82475 0.0945,4.55934 1.15427,-1.15427 -0.0209,-4.39398 0.44885,-4.39398 0.0613,0 -0.0602,4.30709 0.0709,4.11049 0.25887,-0.38831 0.8386,-4.66566 0.3071,-5.19717 -0.63234,-0.63234 0.38427,5.25309 -0.44884,5.66964 -0.25888,0.12944 -0.55257,-0.37452 -0.66147,-0.51971 -0.35468,-0.47292 -0.21261,-1.406 -0.21261,-1.96075 0,-3.25721 1.75101,-3.32075 1.01582,-2.29149 -0.39875,0.55825 -1.07146,0.89848 -1.32292,1.27567"
       id="path1674"
       inkscape:connector-curvature="0"
       inkscape:export-xdpi="96"
       inkscape:export-ydpi="96" />
    <path
       style="display:inline;fill:none;stroke:#000000;stroke-width:0.26458332px;stroke-linecap:butt;stroke-linejoin:miter;stroke-opacity:1"
       d="m 81.815617,100.61984 c -1.041185,0.0187 -1.492203,1.60917 -2.672698,1.9043 -1.597172,0.39929 -4.222234,0.17978 -5.245163,1.20271 -0.08104,0.081 2.182849,2.23556 2.839739,2.07134 1.597044,-0.39926 2.241774,-2.24008 3.57473,-2.90656 0.630708,-0.31535 1.924272,-0.0265 2.238383,-0.96885 0.240832,-0.72249 -0.350856,-0.9779 -0.734991,-1.30294"
       id="path1423"
       inkscape:connector-curvature="0"
       inkscape:export-xdpi="96"
       inkscape:export-ydpi="96" />
    <path
       style="display:inline;opacity:1;fill:#4f6f57;fill-opacity:1;stroke:#000000;stroke-width:0.10022607;stroke-linejoin:round;stroke-miterlimit:4;stroke-dasharray:none;stroke-opacity:1;paint-order:markers fill stroke"
       d="m 109.12971,104.45196 c -0.54902,-0.0738 -1.17597,-0.31106 -2.95667,-1.11912 -0.98681,-0.4478 -1.5174,-0.67177 -1.82077,-0.76856 -0.10106,-0.0322 -0.19638,-0.0659 -0.21182,-0.0747 -0.0154,-0.009 0.17446,-0.22108 0.422,-0.47162 0.54659,-0.55324 0.61513,-0.67421 0.70828,-1.25016 l 0.0204,-0.12645 0.29669,0.27679 c 0.32931,0.30721 0.58165,0.4742 0.85069,0.56296 0.42324,0.13963 0.60602,0.14862 2.79973,0.13775 1.15301,-0.006 2.09639,-0.003 2.09639,0.006 0,0.0417 -1.1034,1.94752 -1.29221,2.23199 -0.23026,0.34691 -0.47054,0.59579 -0.57519,0.59579 -0.0357,0 -0.0849,0.006 -0.10933,0.0122 -0.0245,0.007 -0.12718,10e-4 -0.22824,-0.0125 z"
       id="path1431"
       inkscape:connector-curvature="0"
       inkscape:export-xdpi="96"
       inkscape:export-ydpi="96" />
    <path
       style="display:inline;opacity:1;fill:#4f6f57;fill-opacity:1;stroke:#000000;stroke-width:0.10022607;stroke-linejoin:round;stroke-miterlimit:4;stroke-dasharray:none;stroke-opacity:1;paint-order:markers fill stroke"
       d="m 76.32924,105.55543 c -0.447551,-0.21173 -1.191117,-0.7768 -1.870803,-1.42172 -0.438668,-0.41624 -0.438187,-0.39153 -0.01188,-0.61078 0.580948,-0.29878 1.168717,-0.41964 2.878082,-0.59179 1.417801,-0.14279 1.878327,-0.23115 2.2826,-0.43794 0.20534,-0.10503 0.333272,-0.21725 0.891225,-0.78178 0.358309,-0.36252 0.71764,-0.70599 0.798515,-0.76325 l 0.147042,-0.10412 0.158152,0.33005 c 0.130993,0.27337 0.282514,0.52325 0.58343,0.96213 0.02527,0.0369 0.009,0.0685 -0.06682,0.12986 -0.150029,0.12145 -0.441769,0.20506 -1.035669,0.29681 -0.638551,0.0987 -0.77915,0.14359 -1.095232,0.34999 -0.356182,0.23258 -0.66239,0.52101 -1.226373,1.15517 -0.868447,0.9765 -1.297813,1.32857 -1.853404,1.51972 -0.259188,0.0892 -0.330401,0.0852 -0.578868,-0.0323 z"
       id="path1433"
       inkscape:connector-curvature="0"
       inkscape:export-xdpi="96"
       inkscape:export-ydpi="96" />
    <path
       style="display:inline;opacity:1;fill:#4f6f57;fill-opacity:1;stroke:#4f6f57;stroke-width:0.10022607;stroke-linejoin:round;stroke-miterlimit:4;stroke-dasharray:none;stroke-opacity:1;paint-order:markers fill stroke"
       d="m 92.690703,107.32418 c -1.020635,-0.0701 -1.699424,-0.21837 -2.7584,-0.6027 -0.887667,-0.32215 -1.231017,-0.46912 -2.100631,-0.89911 -0.858559,-0.42453 -1.336937,-0.70718 -1.879486,-1.1105 -0.494088,-0.36728 -0.714729,-0.56311 -1.638842,-1.45449 -1.18618,-1.14418 -1.844622,-2.01014 -2.114376,-2.78076 -0.06653,-0.19006 -0.07577,-0.27969 -0.07405,-0.718285 0.0041,-1.046477 0.232407,-2.157929 0.850921,-4.142679 0.399344,-1.281451 1.057357,-2.695689 1.644399,-3.53423 0.724543,-1.034948 1.796923,-2.177873 2.960865,-3.15564 0.978167,-0.821705 1.760072,-1.288682 2.940251,-1.756004 0.884724,-0.350329 1.504524,-0.501633 2.50803,-0.612253 0.637739,-0.0703 1.885019,-0.08142 2.21062,-0.01971 1.166842,0.221145 2.569708,1.119308 3.481629,2.22906 0.716473,0.871901 1.796667,2.515405 2.518387,3.831705 1.76321,3.215789 2.98918,6.009564 3.18115,7.249263 0.0532,0.343613 0.0279,1.013083 -0.0434,1.146613 -0.0577,0.10812 -0.80018,0.84789 -1.26165,1.25703 -0.15619,0.13848 -0.58465,0.5054 -0.95215,0.81538 -0.36749,0.30998 -0.92176,0.78644 -1.2317,1.05881 -0.92852,0.81596 -1.357949,1.13948 -2.292912,1.72742 -0.917163,0.57674 -1.785059,0.96041 -2.655994,1.17411 -1.022786,0.25097 -2.293395,0.36557 -3.292689,0.29698 z"
       id="path1419"
       inkscape:connector-curvature="0"
       inkscape:export-xdpi="96"
       inkscape:export-ydpi="96" />
    <path
       style="display:inline;fill:none;stroke:#000000;stroke-width:0.26458332px;stroke-linecap:butt;stroke-linejoin:miter;stroke-opacity:1"
       d="m 103.93217,102.59095 c 1.32931,0.30244 4.57503,2.26393 5.61266,2.00453 0.63659,-0.15915 1.94372,-3.30746 2.3052,-3.30746 0.14477,0 -0.25614,0.16704 -0.40091,0.16704 -1.13443,0 -2.30629,0.0334 -3.44109,0.0334 -1.76748,0 -1.83299,-0.19597 -2.70611,-1.06908 -0.36516,-0.36516 -1.44216,1.93987 -1.36975,2.17156 z"
       id="path1427"
       inkscape:connector-curvature="0"
       inkscape:export-xdpi="96"
       inkscape:export-ydpi="96" />
    <path
       style="display:inline;fill:none;stroke:#000000;stroke-width:0.26458332px;stroke-linecap:butt;stroke-linejoin:miter;stroke-opacity:1"
       d="m 84.260975,92.044632 c 1.683137,4.243243 2.72579,8.712538 2.590285,13.597658"
       id="path4300"
       inkscape:connector-curvature="0"
       sodipodi:nodetypes="cc"
       inkscape:export-xdpi="96"
       inkscape:export-ydpi="96" />
    <path
       style="display:inline;fill:none;stroke:#000000;stroke-width:0.26458332px;stroke-linecap:butt;stroke-linejoin:miter;stroke-opacity:1"
       d="m 86.512124,89.552288 c 2.614283,5.502956 3.575011,11.434612 3.296325,17.687592"
       id="path4302"
       inkscape:connector-curvature="0"
       sodipodi:nodetypes="cc"
       inkscape:export-xdpi="96"
       inkscape:export-ydpi="96" />
    <path
       style="display:inline;fill:none;stroke:#000000;stroke-width:0.26458332px;stroke-linecap:butt;stroke-linejoin:miter;stroke-opacity:1"
       d="m 89.245661,87.381538 c 2.859238,6.414244 2.79923,13.226572 3.445042,19.942642"
       id="path4304"
       inkscape:connector-curvature="0"
       sodipodi:nodetypes="cc"
       inkscape:export-xdpi="96"
       inkscape:export-ydpi="96" />
    <path
       style="display:inline;fill:none;stroke:#000000;stroke-width:0.26458332px;stroke-linecap:butt;stroke-linejoin:miter;stroke-opacity:1"
       d="m 95.677513,85.934371 c 1.728279,6.534678 4.154161,12.836823 3.457122,20.179939"
       id="path4308"
       inkscape:connector-curvature="0"
       sodipodi:nodetypes="cc"
       inkscape:export-xdpi="96"
       inkscape:export-ydpi="96" />
    <path
       style="display:inline;fill:none;stroke:#000000;stroke-width:0.26458332px;stroke-linecap:butt;stroke-linejoin:miter;stroke-opacity:1"
       d="m 99.456229,88.909103 c 2.315671,5.35487 4.274491,10.590793 3.106181,14.784337"
       id="path4310"
       inkscape:connector-curvature="0"
       sodipodi:nodetypes="cc"
       inkscape:export-xdpi="96"
       inkscape:export-ydpi="96" />
    <path
       style="display:inline;fill:none;stroke:#222b00;stroke-width:0.26458332px;stroke-linecap:butt;stroke-linejoin:miter;stroke-opacity:1"
       d="M 82.699791,96.546929 C 87.79429,92.237238 92.5824,89.101107 99.456229,88.909103"
       id="path4312"
       inkscape:connector-curvature="0"
       sodipodi:nodetypes="cc"
       inkscape:export-xdpi="96"
       inkscape:export-ydpi="96" />
    <path
       style="display:inline;fill:none;stroke:#000000;stroke-width:0.26458332px;stroke-linecap:butt;stroke-linejoin:miter;stroke-opacity:1"
       d="m 81.815617,100.61984 c 5.775608,-6.172847 12.06615,-10.363203 19.972153,-8.334015"
       id="path4314"
       inkscape:connector-curvature="0"
       sodipodi:nodetypes="cc"
       inkscape:export-xdpi="96"
       inkscape:export-ydpi="96" />
    <path
       style="display:inline;fill:none;stroke:#000000;stroke-width:0.26458332px;stroke-linecap:butt;stroke-linejoin:miter;stroke-opacity:1"
       d="M 83.252189,103.45958 C 89.22326,99.346289 94.060508,92.788191 103.23494,95.58215"
       id="path4316"
       inkscape:connector-curvature="0"
       sodipodi:nodetypes="cc"
       inkscape:export-xdpi="96"
       inkscape:export-ydpi="96" />
    <path
       style="display:inline;fill:none;stroke:#000000;stroke-width:0.26458332px;stroke-linecap:butt;stroke-linejoin:miter;stroke-opacity:1"
       d="m 84.787461,105.04836 c 6.396757,-3.00979 12.689867,-6.641464 19.492659,-7.215061"
       id="path4318"
       inkscape:connector-curvature="0"
       sodipodi:nodetypes="cc"
       inkscape:export-xdpi="96"
       inkscape:export-ydpi="96" />
    <path
       style="display:inline;fill:none;stroke:#000000;stroke-width:0.26458332px;stroke-linecap:butt;stroke-linejoin:miter;stroke-opacity:1"
       d="m 89.808449,107.23988 14.123721,-4.64893"
       id="path4320"
       inkscape:connector-curvature="0"
       inkscape:export-xdpi="96"
       inkscape:export-ydpi="96" />
    <path
       style="display:inline;fill:none;stroke:#000000;stroke-width:0.26458332px;stroke-linecap:butt;stroke-linejoin:miter;stroke-opacity:1"
       d="m 92.193403,85.71745 c 2.127258,7.103403 4.992787,14.137593 3.859112,21.54671"
       id="path4306"
       inkscape:connector-curvature="0"
       sodipodi:nodetypes="cc"
       inkscape:export-xdpi="96"
       inkscape:export-ydpi="96" />
    <path
       style="display:inline;opacity:0.53500001;fill:#222b00;fill-opacity:1;stroke:none;stroke-width:0.07130778;stroke-linejoin:round;stroke-miterlimit:4;stroke-dasharray:none;stroke-opacity:1;paint-order:markers fill stroke"
       d="m 88.447388,106.5353 c -0.611908,-0.0592 -1.018866,-0.18437 -1.653761,-0.50886 -0.532189,-0.27199 -0.73804,-0.39607 -1.259405,-0.75912 -0.514738,-0.35843 -0.801545,-0.59707 -1.126821,-0.93759 -0.296223,-0.3101 -0.428506,-0.47543 -0.982546,-1.22803 -0.711157,-0.96602 -1.105917,-1.69716 -1.267646,-2.34779 -0.03989,-0.16047 -0.04543,-0.23614 -0.0444,-0.60645 0.0025,-0.883538 0.139337,-1.821937 0.510159,-3.497659 0.239421,-1.081929 0.633924,-2.27597 0.985877,-2.98395 0.43439,-0.873805 1.077321,-1.838775 1.775147,-2.664304 0.586447,-0.693765 1.055226,-1.088034 1.762787,-1.482592 0.530425,-0.295785 0.902018,-0.423531 1.503656,-0.516926 0.382347,-0.05936 1.130137,-0.06874 1.325347,-0.01664 0.699565,0.186713 1.540634,0.945031 2.087364,1.881994 0.429551,0.736147 1.077167,2.123755 1.509866,3.235107 1.057107,2.715089 1.792124,5.073872 1.907215,6.12055 0.0319,0.29011 0.01671,0.85534 -0.02601,0.96808 -0.03459,0.0913 -0.479737,0.71587 -0.756406,1.06132 -0.09364,0.11691 -0.35052,0.4267 -0.570847,0.68842 -0.220327,0.26171 -0.552629,0.66399 -0.738449,0.89395 -0.556683,0.68891 -0.814141,0.96206 -1.374686,1.45846 -0.549872,0.48694 -1.070208,0.81087 -1.592365,0.9913 -0.613198,0.21189 -1.374974,0.30865 -1.974087,0.25074 z"
       id="path1419-3"
       inkscape:connector-curvature="0"
       inkscape:export-xdpi="96"
       inkscape:export-ydpi="96" />
    <path
       style="opacity:0.52999998;fill:#222b00;stroke:#222b00;stroke-width:2.66499996;stroke-linecap:butt;stroke-linejoin:miter;stroke-miterlimit:4;stroke-dasharray:none;stroke-opacity:1"
       d="m 89.515357,124.29776 c -0.690616,4.18417 -1.278547,11.17308 -2.325765,13.27808"
       id="path8981"
       inkscape:connector-curvature="0"
       sodipodi:nodetypes="cc" />
    <path
       style="opacity:0.52999998;fill:#222b00;stroke:#222b00;stroke-width:2.66499996;stroke-linecap:butt;stroke-linejoin:miter;stroke-miterlimit:4;stroke-dasharray:none;stroke-opacity:1"
       d="m 96.59174,127.30911 c -0.690616,4.18417 0.826359,7.36583 0.575042,9.72665"
       id="path8981-6"
       inkscape:connector-curvature="0"
       sodipodi:nodetypes="cc" />
    <path
       style="fill:none;stroke:#000000;stroke-width:0.26458332px;stroke-linecap:butt;stroke-linejoin:miter;stroke-opacity:1"
       d="m 98.722681,120.03416 c -0.877215,-0.3434 -1.246224,-0.51822 -2.004523,-0.23386"
       id="path9856"
       inkscape:connector-curvature="0" />
    <path
       style="fill:none;stroke:#000000;stroke-width:0.26458332px;stroke-linecap:butt;stroke-linejoin:miter;stroke-opacity:1"
       d="m 84.691031,119.86712 c 1.73699,1.26567 6.083356,2.01216 8.462949,0.9622"
       id="path9864"
       inkscape:connector-curvature="0" />
    <path
       style="display:inline;fill:none;stroke:#000000;stroke-width:0.26458332px;stroke-linecap:butt;stroke-linejoin:miter;stroke-opacity:1"
       d="m 90.061951,121.49077 c -0.123161,1.64836 0.117998,1.03867 2.189252,1.1885 0.02452,-0.82192 0.005,-1.73398 0.133636,-2.50565"
       id="path1536-3"
       inkscape:connector-curvature="0"
       inkscape:export-xdpi="96"
       inkscape:export-ydpi="96"
       sodipodi:nodetypes="ccc" />
    <path
       style="display:inline;fill:none;stroke:#000000;stroke-width:0.26458332px;stroke-linecap:butt;stroke-linejoin:miter;stroke-opacity:1"
       d="m 93.775895,115.78155 c 4.344932,-3.11374 5.30435,-0.54977 6.009822,0.56696"
       id="path1041"
       inkscape:connector-curvature="0"
       inkscape:export-xdpi="96"
       inkscape:export-ydpi="96" />
    <path
       style="display:inline;fill:none;stroke:#000000;stroke-width:0.26458332px;stroke-linecap:butt;stroke-linejoin:miter;stroke-opacity:1"
       d="m 99.313245,127.5933 c -3.583556,0.51031 -7.476714,-3.38893 -10.996935,-3.59601"
       id="path883"
       inkscape:connector-curvature="0"
       inkscape:export-xdpi="96"
       inkscape:export-ydpi="96" />
    <path
       style="fill:none;stroke:#000000;stroke-width:0.26458332px;stroke-linecap:butt;stroke-linejoin:miter;stroke-opacity:1"
       d="m 99.785716,116.34851 c 0.421744,2.63225 -0.798774,4.48717 -0.654216,4.93586"
       id="path9854"
       inkscape:connector-curvature="0"
       sodipodi:nodetypes="cc" />
    <path
       style="fill:none;stroke:#000000;stroke-width:0.26458332px;stroke-linecap:butt;stroke-linejoin:miter;stroke-opacity:1"
       d="m 86.695551,114.68877 c -0.820896,1.48796 -1.891535,3.25758 -2.00452,5.17835"
       id="path9862"
       inkscape:connector-curvature="0" />
    <path
       style="fill:none;stroke:#000000;stroke-width:0.26458332px;stroke-linecap:butt;stroke-linejoin:miter;stroke-opacity:1"
       d="m 86.161014,117.56192 c 1.594823,-0.47394 4.330676,1.53022 5.212879,0.75994"
       id="path9866"
       inkscape:connector-curvature="0" />
    <path
       style="display:inline;fill:#4f6f57;fill-opacity:1;stroke:#000000;stroke-width:0.27629185px;stroke-linecap:butt;stroke-linejoin:miter;stroke-opacity:1"
       d="m 88.31631,123.99729 c -0.606746,-0.71542 -0.192931,-2.02908 -0.242674,-3.0269"
       id="path885"
       inkscape:connector-curvature="0"
       inkscape:export-xdpi="96"
       inkscape:export-ydpi="96"
       sodipodi:nodetypes="cc" />
    <path
       style="fill:none;stroke:#000000;stroke-width:0.26458332px;stroke-linecap:butt;stroke-linejoin:miter;stroke-opacity:1"
       d="m 99.1315,121.28437 c -0.679797,2.07429 -0.611254,4.84012 0.0909,6.47334"
       id="path9921"
       inkscape:connector-curvature="0" />
    <path
       style="fill:none;stroke:#000000;stroke-width:0.26458332px;stroke-linecap:butt;stroke-linejoin:miter;stroke-opacity:1"
       d="m 86.695549,114.68877 c 1.333111,-0.007 3.154034,-0.0767 4.17609,0.43432"
       id="path9923"
       inkscape:connector-curvature="0" />
    <path
       style="opacity:1;fill:#4f6f57;fill-opacity:1;stroke:#4f6f57;stroke-width:0.06408155;stroke-linejoin:round;stroke-miterlimit:4;stroke-dasharray:none;stroke-opacity:1;paint-order:markers fill stroke"
       d="m 341.91743,463.07868 c -0.54169,-0.0537 -0.75357,-0.15888 -0.90332,-0.44847 -0.16603,-0.32106 -0.22708,-1.24396 -0.15624,-2.36161 0.0352,-0.55558 0.0641,-1.03146 0.0643,-1.0575 1.6e-4,-0.026 -0.17728,-0.0518 -0.3943,-0.0573 -0.21703,-0.005 0.34408,-0.0321 1.24691,-0.0593 2.49195,-0.075 4.02425,-0.2158 5.70744,-0.52446 l 0.78295,-0.14357 -0.0409,1.07888 c -0.0225,0.59338 -0.041,1.63488 -0.0411,2.31443 l -1.9e-4,1.23556 -2.59559,0.006 c -1.42758,0.004 -2.72736,0.0197 -2.88841,0.0359 -0.16104,0.0162 -0.51273,0.008 -0.78152,-0.019 z"
       id="path9934"
       inkscape:connector-curvature="0"
       transform="scale(0.26458333)" />
    <path
       style="opacity:1;fill:#4f6f57;fill-opacity:1;stroke:#4f6f57;stroke-width:0.090625;stroke-linejoin:round;stroke-miterlimit:4;stroke-dasharray:none;stroke-opacity:1;paint-order:markers fill stroke"
       d="m 370.32369,481.70922 c -1.80695,-0.23178 -3.63864,-0.68622 -5.97307,-1.48193 -2.84059,-0.96825 -5.12228,-2.00492 -12.15193,-5.52115 -5.1868,-2.59443 -7.26751,-3.56626 -9.46429,-4.42043 -2.5981,-1.01022 -5.19833,-1.72759 -7.14177,-1.97032 -0.61443,-0.0767 -1.21548,-0.16697 -1.33565,-0.2005 -0.45172,-0.12605 -0.50514,-0.38217 -0.76496,-3.66758 -0.22588,-2.8563 -0.23525,-3.17272 -0.13362,-4.50892 0.0601,-0.79038 0.12046,-1.44915 0.1341,-1.46392 0.0136,-0.0148 0.602,0.053 1.30746,0.15066 1.30408,0.18049 2.65659,0.3155 4.18444,0.41771 l 0.84822,0.0567 v 1.79909 c 0,1.58525 0.0198,1.83624 0.16669,2.11159 0.23419,0.43904 0.49086,0.70113 0.90474,0.92387 0.3471,0.1868 0.45254,0.19236 3.75,0.19779 1.86607,0.003 3.63786,0.0365 3.93731,0.0742 l 0.54445,0.0686 0.0576,-0.60987 c 0.0317,-0.33543 0.0581,-1.25272 0.0586,-2.03844 5.4e-4,-0.78571 0.0271,-1.88001 0.0589,-2.43177 l 0.0578,-1.0032 0.76768,-0.23309 c 1.03388,-0.31393 2.1516,-0.74821 2.1516,-0.83601 0,-0.1463 -0.36827,-0.89771 -0.43997,-0.89771 -0.041,0 -0.35047,0.10556 -0.68779,0.23458 -0.83633,0.31989 -1.66669,0.57215 -1.71717,0.52168 -0.0432,-0.0432 0.13963,-2.04911 0.22478,-2.46623 0.0529,-0.25934 0.009,-0.28546 -0.64878,-0.38749 -0.43935,-0.0681 -0.41983,-0.12328 -0.57126,1.61413 -0.14667,1.68281 -0.0806,1.57023 -1.02779,1.75123 -1.97931,0.37825 -3.20751,0.47069 -6.20344,0.4669 -2.11729,-0.003 -3.27593,-0.0449 -4.28572,-0.15636 -2.27679,-0.2512 -3.33795,-0.42738 -3.45524,-0.57368 -0.0769,-0.0959 -0.1945,-0.11709 -0.41779,-0.0752 -0.54521,0.10228 -4.00408,-0.7207 -6.38689,-1.51966 -1.86846,-0.6265 -4.35728,-1.76961 -5.52133,-2.53595 -0.55435,-0.36495 -0.54671,-0.31163 -0.29236,-2.04048 0.59923,-4.0731 2.29581,-8.31789 6.00009,-15.01205 l 1.11166,-2.00892 2.85147,-0.0271 c 4.19585,-0.0398 7.30109,0.1647 9.40766,0.61968 1.03348,0.2232 2.15766,0.56961 2.63407,0.81168 0.31959,0.16237 0.36038,0.16549 0.45593,0.0348 0.0894,-0.12227 0.2807,0.0812 1.29167,1.37386 0.6527,0.83457 1.22639,1.51739 1.27488,1.51739 0.0485,0 0.91747,-0.28192 1.93107,-0.62649 1.16798,-0.39704 2.05587,-0.64637 2.42437,-0.68078 0.7283,-0.068 1.49036,0.11525 3.3533,0.8064 0.74253,0.27548 1.38577,0.50087 1.42943,0.50087 0.0437,0 0.079,-0.13003 0.0785,-0.28896 -8.1e-4,-0.2626 0.0684,-0.3364 0.75806,-0.8092 6.2581,-4.2899 11.33355,-5.68862 14.85237,-4.09311 0.87957,0.39882 1.63575,0.94757 2.46906,1.79179 0.89621,0.90794 1.46998,1.69644 2.61726,3.59678 l 0.84681,1.40265 0.12065,0.96342 c 0.17702,1.41363 0.1527,5.04071 -0.0433,6.45449 -0.32647,2.35513 -0.79598,4.28594 -1.80383,7.41799 -0.61332,1.906 -0.84476,2.82538 -0.84476,3.35577 0,0.17362 -0.11836,0.72345 -0.26303,1.22185 -0.52284,1.80126 -0.93669,3.9449 -1.22641,6.3526 -0.13021,1.08206 -0.16073,2.0081 -0.15889,4.82143 0.002,3.12096 0.0235,3.63959 0.20691,5 0.30634,2.27214 0.63595,3.797 1.32685,6.1384 0.0426,0.14432 -0.0586,0.15548 -1.32591,0.14621 -0.75461,-0.006 -1.7939,-0.0642 -2.30952,-0.13029 z m 2.83566,-28.007 c 0.0995,-0.25781 0.15516,-0.49443 0.12357,-0.52582 -0.13107,-0.13022 -2.70684,-1.05657 -3.44507,-1.23899 -1.33253,-0.32927 -2.98677,-0.22885 -4.26449,0.25886 l -0.24141,0.0921 0.14167,0.42789 c 0.0779,0.23534 0.17013,0.45969 0.20493,0.49856 0.0348,0.0389 0.41565,-0.0314 0.84634,-0.15625 0.58689,-0.17007 0.98947,-0.22692 1.607,-0.22692 1.00586,0 1.73087,0.17515 3.45818,0.83542 0.70304,0.26875 1.30302,0.49206 1.33327,0.49625 0.0303,0.004 0.13646,-0.20332 0.23601,-0.46114 z M 344.75372,448.155 c 0.23982,-0.08 0.55532,-0.24088 0.7011,-0.35759 l 0.26505,-0.21218 -0.33258,-0.40588 -0.33259,-0.40588 -0.42354,0.23893 c -0.39944,0.22534 -0.48958,0.23886 -1.58426,0.2376 -1.49437,-0.002 -2.3678,-0.22026 -6.46121,-1.61664 -4.8147,-1.64243 -6.70509,-2.08862 -8.83784,-2.08599 -1.01114,10e-4 -2.06347,0.14387 -2.22055,0.30095 -0.0308,0.0308 0.004,0.24659 0.0766,0.47951 0.12677,0.40497 0.14601,0.42257 0.43959,0.4021 3.45953,-0.24117 4.29979,-0.073 11.02131,2.20609 4.28137,1.45168 6.11792,1.74284 7.68896,1.21898 z"
       id="path9944"
       inkscape:connector-curvature="0"
       transform="scale(0.26458333)" />
    <path
       style="opacity:0.52999998;fill:#222b00;stroke:#222b00;stroke-width:1.31550837;stroke-linecap:butt;stroke-linejoin:miter;stroke-miterlimit:4;stroke-dasharray:none;stroke-opacity:1"
       d="m 88.914771,121.29291 c -0.690616,4.18417 0.401599,-0.16536 0.0029,2.66231"
       id="path8981-65"
       inkscape:connector-curvature="0"
       sodipodi:nodetypes="cc" />
  </g>
  <g
     inkscape:groupmode="layer"
     id="layer12"
     inkscape:label="fucile"
     style="display:inline">
    <path
       style="display:inline;fill:none;stroke:#000000;stroke-width:0.26458332px;stroke-linecap:butt;stroke-linejoin:miter;stroke-opacity:1"
       d="m 86.499852,109.4032 c -0.419055,1.84798 -0.668703,4.55382 0.868194,5.83603 l 4.276312,2.16583 c -0.270215,-0.40516 -0.441814,-0.85963 -0.08909,-1.57626"
       id="path974"
       inkscape:connector-curvature="0"
       sodipodi:nodetypes="cccc"
       inkscape:export-xdpi="96"
       inkscape:export-ydpi="96" />
    <path
       style="display:inline;opacity:1;fill:none;stroke:#000000;stroke-width:0.26458332px;stroke-linecap:butt;stroke-linejoin:miter;stroke-opacity:1"
       d="m 91.644358,117.40506 0.227134,1.95219 1.384686,1.88133 -0.118117,1.98437 1.606399,1.79539 0.259858,-3.82701"
       id="path976"
       inkscape:connector-curvature="0"
       sodipodi:nodetypes="cccccc"
       inkscape:export-xdpi="96"
       inkscape:export-ydpi="96" />
    <path
       style="display:inline;opacity:1;fill:none;stroke:#000000;stroke-width:0.26458332px;stroke-linecap:butt;stroke-linejoin:miter;stroke-opacity:1"
       d="m 93.775894,115.78155 9.014786,11.44968"
       id="path979"
       inkscape:connector-curvature="0"
       sodipodi:nodetypes="cc"
       inkscape:export-xdpi="96"
       inkscape:export-ydpi="96" />
    <path
       style="display:inline;fill:none;stroke:#000000;stroke-width:0.26458332px;stroke-linecap:butt;stroke-linejoin:miter;stroke-opacity:1"
       d="m 94.74446,125.01834 1.039434,0.16536 0.165365,-3.00019"
       id="path984"
       inkscape:connector-curvature="0"
       inkscape:export-xdpi="96"
       inkscape:export-ydpi="96" />
    <path
       style="display:inline;fill:none;stroke:#000000;stroke-width:0.26458332px;stroke-linecap:butt;stroke-linejoin:miter;stroke-opacity:1"
       d="m 91.644358,117.40506 3.35996,3.78627 0.652743,0.0493 c -0.03075,0.69013 0.107216,0.74116 0.292198,0.94288"
       id="path992"
       inkscape:connector-curvature="0"
       sodipodi:nodetypes="cccc"
       inkscape:export-xdpi="96"
       inkscape:export-ydpi="96" />
    <path
       style="display:inline;fill:none;stroke:#000000;stroke-width:0.26458332px;stroke-linecap:butt;stroke-linejoin:miter;stroke-opacity:1"
       d="m 92.514475,119.66612 c -0.0088,0.29239 0.10991,0.53075 0.275622,0.7517 0.448683,0.59824 1.270796,0.10985 0.826865,-0.33409 -0.151855,-0.15185 -1.545841,-1.19799 -1.135896,-0.27562"
       id="path998"
       inkscape:connector-curvature="0"
       inkscape:export-xdpi="96"
       inkscape:export-ydpi="96" />
    <path
       style="display:inline;fill:none;stroke:#000000;stroke-width:0.26458332px;stroke-linecap:butt;stroke-linejoin:miter;stroke-opacity:1"
       d="m 93.224407,119.92504 c -0.289358,0.0387 -0.446936,0.15015 -0.334086,0.37585"
       id="path1000"
       inkscape:connector-curvature="0"
       inkscape:export-xdpi="96"
       inkscape:export-ydpi="96" />
    <path
       style="display:inline;opacity:1;fill:#4f6f57;fill-opacity:1;stroke:#4f6f57;stroke-width:0.08047856;stroke-linejoin:round;stroke-miterlimit:4;stroke-dasharray:none;stroke-opacity:1;paint-order:markers fill stroke"
       d="m 93.763999,115.13658 c -0.06197,-0.21277 -0.158208,-0.50067 -0.21386,-0.63978 l -0.101185,-0.25292 0.129313,-0.11035 c 0.897141,-0.76552 1.862428,-1.46273 2.140498,-1.54604 0.25804,-0.0773 0.326776,-0.01 0.673769,0.66119 0.167672,0.32426 0.351531,0.66009 0.408575,0.74628 l 0.103714,0.15673 -0.328176,0.0699 c -0.770128,0.16402 -1.520952,0.52403 -2.659748,1.27531 -0.02381,0.0157 -0.0862,-0.13132 -0.1529,-0.36032 z"
       id="path950"
       inkscape:connector-curvature="0"
       inkscape:export-xdpi="96"
       inkscape:export-ydpi="96" />
    <path
       style="display:inline;fill:none;stroke:#000000;stroke-width:0.26458332px;stroke-linecap:butt;stroke-linejoin:miter;stroke-opacity:1"
       d="m 90.548163,116.32612 c 0.534061,-0.16925 1.578821,0.2182 2.071338,0.33409"
       id="path1538"
       inkscape:connector-curvature="0"
       inkscape:export-xdpi="96"
       inkscape:export-ydpi="96" />
    <path
       style="display:inline;fill:none;stroke:#000000;stroke-width:0.26458332px;stroke-linecap:butt;stroke-linejoin:miter;stroke-opacity:1"
       d="m 97.000949,121.36477 c 0.90548,2.52851 0.496482,1.18163 -1.707948,1.18163 -0.0245,-0.82191 -0.03343,-2.04666 -0.162065,-2.81832"
       id="path1536-8-7"
       inkscape:connector-curvature="0"
       inkscape:export-xdpi="96"
       inkscape:export-ydpi="96"
       sodipodi:nodetypes="ccc" />
    <path
       style="display:inline;fill:none;stroke:#000000;stroke-width:0.26458332px;stroke-linecap:butt;stroke-linejoin:miter;stroke-opacity:1"
       d="m 93.244125,114.21045 c 3.660555,-3.07608 2.485067,-1.66279 4.036356,0.17056"
       id="path1122"
       inkscape:connector-curvature="0"
       inkscape:export-xdpi="96"
       inkscape:export-ydpi="96" />
    <path
       style="display:inline;fill:none;stroke:#000000;stroke-width:0.26458332px;stroke-linecap:butt;stroke-linejoin:miter;stroke-opacity:1"
       d="m 93.244125,114.21045 c 0.313742,0.51467 0.531971,1.56304 0.53177,1.5711"
       id="path932"
       inkscape:connector-curvature="0"
       inkscape:export-xdpi="96"
       inkscape:export-ydpi="96" />
    <path
       style="display:inline;fill:none;stroke:#000000;stroke-width:0.26458332px;stroke-linecap:butt;stroke-linejoin:miter;stroke-opacity:1"
       d="m 87.501679,112.09881 c 0.900936,0.23525 2.121887,0.11862 2.926721,-0.0602"
       id="path934"
       inkscape:connector-curvature="0"
       inkscape:export-xdpi="96"
       inkscape:export-ydpi="96" />
    <path
       style="display:inline;fill:none;stroke:#000000;stroke-width:0.26458332px;stroke-linecap:butt;stroke-linejoin:miter;stroke-opacity:1"
       d="m 93.735696,116.78653 c 0.24316,2.28627 1.939941,3.14248 3.265253,4.57824"
       id="path977"
       inkscape:connector-curvature="0"
       sodipodi:nodetypes="cc"
       inkscape:export-xdpi="96"
       inkscape:export-ydpi="96" />
    <path
       style="display:inline;fill:none;stroke:#000000;stroke-width:0.26458332px;stroke-linecap:butt;stroke-linejoin:miter;stroke-opacity:1"
       d="m 99.131501,121.28437 c -0.122101,2.20436 0.795972,5.22649 0.181744,6.30893"
       id="path995"
       inkscape:connector-curvature="0"
       inkscape:export-xdpi="96"
       inkscape:export-ydpi="96"
       sodipodi:nodetypes="cc" />
    <path
       style="display:inline;opacity:1;fill:#552200;fill-opacity:1;stroke:#000000;stroke-width:0.37438542;stroke-linejoin:round;stroke-miterlimit:4;stroke-dasharray:none;stroke-opacity:1;paint-order:markers fill stroke"
       d="m 89.334155,116.05826 c -1.299689,-0.666 -1.935068,-1.02324 -2.092945,-1.17675 -0.285302,-0.27741 -0.649806,-1.00818 -0.762142,-1.52798 -0.182354,-0.84376 -0.16046,-2.32605 0.04819,-3.26275 l 0.06828,-0.30655 2.380851,3.02662 2.38085,3.0266 -0.06995,0.23348 c -0.07164,0.23912 -0.08959,0.79625 -0.02881,0.89458 0.01865,0.0302 0.0132,0.0536 -0.01209,0.052 -0.02529,-0.002 -0.885804,-0.43324 -1.912239,-0.95922 z"
       id="path985"
       inkscape:connector-curvature="0"
       inkscape:export-xdpi="96"
       inkscape:export-ydpi="96" />
    <path
       style="display:inline;opacity:1;fill:#666666;fill-opacity:1;stroke:#000000;stroke-width:0.37438542;stroke-linejoin:round;stroke-miterlimit:4;stroke-dasharray:none;stroke-opacity:1;paint-order:markers fill stroke"
       d="m 93.957629,123.89553 -0.653775,-0.73511 0.05079,-0.98899 c 0.0498,-0.96985 0.04836,-0.99241 -0.07494,-1.16555 l -0.125723,-0.17656 h 0.199676 c 0.247693,0 0.484833,-0.19142 0.537364,-0.43376 l 0.03818,-0.17615 0.455912,0.51815 0.455911,0.51813 -0.114811,1.68748 -0.11481,1.68748 z"
       id="path1007"
       inkscape:connector-curvature="0"
       inkscape:export-xdpi="96"
       inkscape:export-ydpi="96" />
    <path
       style="display:inline;opacity:1;fill:#666666;fill-opacity:1;stroke:#000000;stroke-width:0.34792709;stroke-linejoin:round;stroke-miterlimit:4;stroke-dasharray:none;stroke-opacity:1;paint-order:markers fill stroke"
       d="m 95.162436,124.93801 c -0.103413,-0.0128 -0.200959,-0.0569 -0.216768,-0.0981 -0.02577,-0.0671 0.189002,-3.44465 0.22103,-3.476 0.0073,-0.007 0.08058,3e-5 0.162933,0.0159 0.130125,0.025 0.154461,0.0645 0.185897,0.30143 0.0199,0.14996 0.08846,0.33914 0.152368,0.42039 0.114369,0.14539 0.11508,0.16925 0.04508,1.51275 l -0.07112,1.36503 -0.145704,-0.009 c -0.08013,-0.005 -0.230309,-0.0195 -0.333721,-0.0323 z"
       id="path1009"
       inkscape:connector-curvature="0"
       inkscape:export-xdpi="96"
       inkscape:export-ydpi="96" />
    <path
       style="display:inline;opacity:1;fill:#666666;fill-opacity:1;stroke:#4f6f57;stroke-width:0.05685008;stroke-linejoin:round;stroke-miterlimit:4;stroke-dasharray:none;stroke-opacity:1;paint-order:markers fill stroke"
       d="m 93.048029,119.48757 c -0.365464,-0.22875 -0.667523,-0.2465 -0.76731,-0.0451 l -0.0593,0.11969 -0.09598,-0.12725 c -0.0622,-0.0825 -0.125111,-0.36474 -0.178721,-0.80189 -0.0455,-0.37105 -0.07619,-0.68125 -0.0682,-0.68934 0.008,-0.008 0.280799,0.2859 0.606237,0.6533 0.325435,0.3674 0.67782,0.76415 0.783076,0.88166 0.233977,0.26123 0.186381,0.26316 -0.219802,0.009 z"
       id="path1011"
       inkscape:connector-curvature="0"
       inkscape:export-xdpi="96"
       inkscape:export-ydpi="96" />
    <path
       style="display:inline;opacity:1;fill:#666666;fill-opacity:1;stroke:#000000;stroke-width:0.37438542;stroke-linejoin:round;stroke-miterlimit:4;stroke-dasharray:none;stroke-opacity:1;paint-order:markers fill stroke"
       d="m 98.603974,124.77983 -2.77029,-2.95697 v -0.35747 -0.35748 l -0.389239,-0.0505 -0.389237,-0.0505 -1.663065,-1.87605 c -0.914686,-1.03183 -1.700241,-1.94778 -1.745681,-2.03545 -0.125555,-0.24223 -0.153358,-0.66084 -0.0611,-0.9199 0.0774,-0.21732 0.100118,-0.23295 0.558485,-0.38418 0.537038,-0.17718 0.718868,-0.17526 1.220843,0.0129 l 0.337109,0.12636 4.178482,5.31219 c 2.298169,2.92171 4.266969,5.43006 4.375129,5.57412 l 0.19664,0.26192 -0.34463,-0.039 -0.34464,-0.039 -0.19426,0.36799 -0.19426,0.36799 z"
       id="path1106"
       inkscape:connector-curvature="0"
       inkscape:export-xdpi="96"
       inkscape:export-ydpi="96" />
    <path
       style="display:inline;fill:#999999;stroke:#b3b3b3;stroke-width:0.52969581;stroke-linecap:butt;stroke-linejoin:miter;stroke-miterlimit:4;stroke-dasharray:none;stroke-opacity:1"
       d="m 92.770954,115.59922 9.084286,11.5819"
       id="path1116"
       inkscape:connector-curvature="0"
       sodipodi:nodetypes="cc"
       inkscape:export-xdpi="96"
       inkscape:export-ydpi="96" />
    <path
       style="display:inline;fill:#cccccc;stroke:#999999;stroke-width:0.26458332px;stroke-linecap:butt;stroke-linejoin:miter;stroke-opacity:1"
       d="m 93.353802,115.68105 9.098258,11.39775"
       id="path1120"
       inkscape:connector-curvature="0"
       sodipodi:nodetypes="cc"
       inkscape:export-xdpi="96"
       inkscape:export-ydpi="96" />
    <path
       style="display:inline;fill:none;stroke:#ff5555;stroke-width:0.26458332px;stroke-linecap:butt;stroke-linejoin:miter;stroke-opacity:1"
       d="m 90.810292,110.75221 c 1.841087,-0.29444 4.248837,-1.65924 5.225881,-0.32159"
       id="path1133"
       inkscape:connector-curvature="0"
       sodipodi:nodetypes="cc"
       inkscape:export-xdpi="96"
       inkscape:export-ydpi="96" />
    <path
       style="display:inline;fill:#ff8080;fill-opacity:1;stroke:#ff5555;stroke-width:0.26458332px;stroke-linecap:butt;stroke-linejoin:miter;stroke-opacity:1"
       d="m 96.790724,123.41423 c 2.334903,8.08954 5.097036,0.99878 2.52475,1.54708 -0.809681,0.17259 -0.298271,0.38217 -1.429223,-0.94906 -1.069208,-0.42936 -0.406506,-0.64244 -1.095527,-0.59802 z"
       id="path936"
       inkscape:connector-curvature="0"
       sodipodi:nodetypes="cscc"
       inkscape:export-xdpi="96"
       inkscape:export-ydpi="96" />
    <path
       style="display:inline;fill:#ff8080;fill-opacity:1;stroke:#ff5555;stroke-width:0.26458332px;stroke-linecap:butt;stroke-linejoin:miter;stroke-opacity:1"
       d="m 91.414092,118.08067 c -1.372175,3.42042 0.584753,2.79197 2.17075,1.20597 0.323403,-0.3234 -1.165773,-0.26622 -1.165773,-0.72358 0,-0.88232 -0.747141,-0.40015 -1.045176,-0.2412"
       id="path941"
       inkscape:connector-curvature="0"
       inkscape:export-xdpi="96"
       inkscape:export-ydpi="96" />
    <path
       style="display:inline;fill:none;stroke:#000000;stroke-width:0.26458332px;stroke-linecap:butt;stroke-linejoin:miter;stroke-opacity:1"
       d="m 101.50445,127.81589 0.35079,-0.63477 0.93544,0.0501 0.21716,0.28397 -0.15034,0.43432 -0.50113,0.50113 -0.7851,-0.26727 z"
       id="path986"
       inkscape:connector-curvature="0"
       inkscape:export-xdpi="96"
       inkscape:export-ydpi="96" />
    <path
       style="display:inline;fill:none;stroke:#000000;stroke-width:0.26458332px;stroke-linecap:butt;stroke-linejoin:miter;stroke-opacity:1"
       d="m 95.949259,122.18351 5.622011,5.99987"
       id="path988"
       inkscape:connector-curvature="0"
       sodipodi:nodetypes="cc"
       inkscape:export-xdpi="96"
       inkscape:export-ydpi="96" />
    <path
       style="display:inline;opacity:1;fill:#000000;fill-opacity:1;stroke:#4f6f57;stroke-width:0.05685008;stroke-linejoin:round;stroke-miterlimit:4;stroke-dasharray:none;stroke-opacity:1;paint-order:markers fill stroke"
       d="m 102.00192,128.16587 c -0.34026,-0.1166 -0.38055,-0.23616 -0.1924,-0.57093 l 0.12806,-0.22786 h 0.38052 c 0.58947,0 0.66029,0.23021 0.20545,0.66782 l -0.23738,0.22837 z"
       id="path1013"
       inkscape:connector-curvature="0"
       inkscape:export-xdpi="96"
       inkscape:export-ydpi="96" />
    <path
       style="fill:none;stroke:#000000;stroke-width:0.26458332px;stroke-linecap:butt;stroke-linejoin:miter;stroke-opacity:1"
       d="m 90.504144,117.01068 c -0.232979,0.41973 -0.262943,0.79007 -0.317384,1.25282"
       id="path9938"
       inkscape:connector-curvature="0" />
    <path
       style="fill:none;stroke:#000000;stroke-width:0.26458332px;stroke-linecap:butt;stroke-linejoin:miter;stroke-opacity:1"
       d="m 97.102356,119.68337 c -0.339509,-0.69116 -1.176698,-1.24304 -0.868622,-2.22168"
       id="path9940"
       inkscape:connector-curvature="0"
       sodipodi:nodetypes="cc" />
    <path
       style="fill:none;stroke:#000000;stroke-width:0.26458332px;stroke-linecap:butt;stroke-linejoin:miter;stroke-opacity:1"
       d="m 96.517707,117.07749 c -0.258233,0.28056 -0.496331,0.47441 -0.830672,0.51375"
       id="path9942"
       inkscape:connector-curvature="0" />
  </g>
</svg>
