<?xml version="1.0" encoding="UTF-8" standalone="no"?>
<!-- Created with Inkscape (http://www.inkscape.org/) -->

<svg
   xmlns:dc="http://purl.org/dc/elements/1.1/"
   xmlns:cc="http://creativecommons.org/ns#"
   xmlns:rdf="http://www.w3.org/1999/02/22-rdf-syntax-ns#"
   xmlns:svg="http://www.w3.org/2000/svg"
   xmlns="http://www.w3.org/2000/svg"
   xmlns:sodipodi="http://sodipodi.sourceforge.net/DTD/sodipodi-0.dtd"
   xmlns:inkscape="http://www.inkscape.org/namespaces/inkscape"
   width="210mm"
   height="297mm"
   viewBox="0 0 210 297"
   version="1.1"
   id="svg1151"
   inkscape:version="0.92.3 (2405546, 2018-03-11)"
   sodipodi:docname="sparo2.svg"
   inkscape:export-filename="D:\prj\ISODraugth\gimp\soldier7.png"
   inkscape:export-xdpi="96"
   inkscape:export-ydpi="96">
  <defs
     id="defs1145" />
  <sodipodi:namedview
     id="base"
     pagecolor="#ffffff"
     bordercolor="#666666"
     borderopacity="1.0"
     inkscape:pageopacity="0.0"
     inkscape:pageshadow="2"
     inkscape:zoom="1.979899"
     inkscape:cx="338.2068"
     inkscape:cy="684.67605"
     inkscape:document-units="mm"
     inkscape:current-layer="layer2"
     showgrid="false"
     inkscape:window-width="1920"
     inkscape:window-height="1046"
     inkscape:window-x="-11"
     inkscape:window-y="-11"
     inkscape:window-maximized="1" />
  <metadata
     id="metadata1148">
    <rdf:RDF>
      <cc:Work
         rdf:about="">
        <dc:format>image/svg+xml</dc:format>
        <dc:type
           rdf:resource="http://purl.org/dc/dcmitype/StillImage" />
        <dc:title />
      </cc:Work>
    </rdf:RDF>
  </metadata>
  <g
     inkscape:groupmode="layer"
     id="layer3"
     inkscape:label="zaino"
     style="display:inline"
     sodipodi:insensitive="true">
    <path
       style="display:inline;fill:#803300;stroke:#000000;stroke-width:0.26458332px;stroke-linecap:butt;stroke-linejoin:miter;stroke-opacity:1"
       d="m 130.61847,108.7758 c 0.74888,-2.24082 9.20726,-2.10322 11.34167,-1.03602 0.61237,0.30618 -0.23113,2.60073 0.99747,4.77049 1.11693,1.97254 -0.12238,5.03225 -0.6195,5.52936 -1.22046,1.22047 -3.76242,0.94494 -5.33891,0.94494 -3.953,0 -6.0386,0.0706 -6.97933,-1.48918 -0.47037,-0.77987 -1.01588,-3.73275 -0.26478,-4.81436 0.77952,-1.12254 0.26666,-1.96756 0.86338,-3.90523 z"
       id="path899"
       inkscape:connector-curvature="0"
       sodipodi:nodetypes="cssssssc"
       inkscape:export-xdpi="96"
       inkscape:export-ydpi="96" />
  </g>
  <g
     inkscape:groupmode="layer"
     id="layer4"
     inkscape:label="colloµ"
     style="display:inline">
    <path
       style="display:inline;fill:#ff5555;stroke:#ff5555;stroke-width:0.26458332px;stroke-linecap:butt;stroke-linejoin:miter;stroke-opacity:1"
       d="m 133.08959,107.80044 -0.0603,2.25115 6.27105,-0.0201 -0.0402,-2.49234 z"
       id="path930"
       inkscape:connector-curvature="0"
       inkscape:export-xdpi="96"
       inkscape:export-ydpi="96" />
  </g>
  <g
     inkscape:groupmode="layer"
     id="layer2"
     inkscape:label="testa"
     style="display:inline">
    <path
       inkscape:export-ydpi="96"
       inkscape:export-xdpi="96"
       sodipodi:nodetypes="cssssscccssssscc"
       inkscape:connector-curvature="0"
       id="path1409-8"
       d="m 126.43597,99.301843 c 0,0 0.1158,1.582017 0.33409,2.338607 0.18932,0.65619 0.47182,1.29264 0.83521,1.87089 0.40363,0.64227 0.91807,1.21685 1.46998,1.73725 0.48615,0.45839 1.04521,0.8358 1.60362,1.20271 0.60028,0.39442 1.20157,0.80847 1.87089,1.06908 0.70237,0.27348 2.20497,0.50113 2.20497,0.50113 l 1.60362,0.13363 1.87089,-0.0334 c 0,0 1.74801,-0.49527 2.57247,-0.86862 0.66815,-0.30257 1.30779,-0.67569 1.90429,-1.10249 0.56486,-0.40416 1.13964,-0.82475 1.57021,-1.36976 0.4601,-0.58239 0.76218,-1.28112 1.03567,-1.97111 0.22997,-0.58021 0.4309,-1.18391 0.50113,-1.80407 0.0552,-0.48738 -0.0668,-1.46998 -0.0668,-1.46998 z"
       style="display:inline;fill:#ff8080;fill-opacity:1;stroke:#ff8080;stroke-width:0.26458332px;stroke-linecap:butt;stroke-linejoin:miter;stroke-opacity:1" />
    <path
       inkscape:export-ydpi="96"
       inkscape:export-xdpi="96"
       inkscape:connector-curvature="0"
       id="path1672-4"
       d="m 126.43597,97.714342 c -0.58954,-0.101837 0.25507,3.360268 0.16948,3.360268 -0.23053,0 0.0754,-0.45536 0.0945,-0.68508 0.0678,-0.812966 0.0473,-1.650124 0.0473,-2.456846 0,-0.215972 0.05,3.304496 0.18899,3.165556 0.739,-0.73901 0.44884,-2.572056 0.44884,-2.551344 0,0.25796 0.0781,2.834824 0.0945,2.834824 0.1175,0 0.087,-2.574966 0.11812,-2.574966 0.91399,0 -0.81949,2.740326 0.0945,2.740326 0.57364,0 0.62212,-3.094679 0.61421,-3.094679 -0.0881,0 -0.0473,1.475342 -0.0473,1.559149 0,0.40978 -0.2425,1.51818 0.0473,1.22843 0.56011,-0.56011 -0.19137,-3.734904 0.25986,-3.283673 0.33267,0.332667 -0.16157,2.608843 -0.18899,3.047433 -0.026,0.41661 0.44105,1.25205 0.0236,1.25205 -0.45261,0 -2.15,-5.173553 -1.46465,-5.173553 0.31399,0 -0.32083,5.041713 0.0236,5.386163 0.0534,0.0534 -0.23623,-4.161716 -0.23623,-3.992375 0,0.866213 0.44884,1.823895 0.44884,2.716705 0,0.34648 -0.34648,1.03943 0,1.03943 0.30051,0 0.0819,-2.19698 0.21261,-2.19698 0.69269,0 0.12171,1.38782 0.30711,2.05524"
       style="display:inline;fill:#501616;stroke:#501616;stroke-width:0.26458332px;stroke-linecap:butt;stroke-linejoin:miter;stroke-opacity:1" />
    <path
       inkscape:export-ydpi="96"
       inkscape:export-xdpi="96"
       inkscape:connector-curvature="0"
       id="path1674-3"
       d="m 144.46482,98.074425 c 0.29676,6.578935 0.42522,2.988315 0.42522,-1.015811 0,-0.121293 0.0613,4.866666 0.33073,4.417596 0.88335,-1.47225 -0.40748,-4.370349 0.16537,-4.370349 0.15331,0 -0.17092,4.824759 0.0945,4.559339 1.15427,-1.15427 -0.0209,-4.393975 0.44885,-4.393975 0.0613,0 -0.0602,4.307085 0.0709,4.110495 0.25887,-0.38832 0.8386,-4.665672 0.3071,-5.197176 -0.63234,-0.632341 0.38427,5.253086 -0.44885,5.669646 -0.25887,0.12943 -0.55256,-0.37452 -0.66146,-0.51972 -0.35468,-0.47292 -0.21261,-1.406 -0.21261,-1.960751 0,-3.25721 1.75101,-3.320751 1.01582,-2.291482 -0.39875,0.558241 -1.07146,0.898475 -1.32292,1.27567"
       style="display:inline;fill:#501616;stroke:#501616;stroke-width:0.26458332px;stroke-linecap:butt;stroke-linejoin:miter;stroke-opacity:1" />
    <path
       inkscape:export-ydpi="96"
       inkscape:export-xdpi="96"
       inkscape:connector-curvature="0"
       id="path1423-9"
       d="m 124.9994,96.462105 c -1.04119,0.01875 -1.49221,1.609172 -2.6727,1.904295 -1.59717,0.399293 -4.22223,0.179782 -5.24516,1.202713 -0.081,0.08104 2.18285,2.235557 2.83974,2.071337 1.59704,-0.39926 2.24177,-2.240077 3.57472,-2.906554 0.63071,-0.315354 1.92428,-0.02652 2.23839,-0.968852 0.24083,-0.722495 -0.35086,-0.977902 -0.73499,-1.302939"
       style="display:inline;fill:#501616;stroke:#000000;stroke-width:0.26458332px;stroke-linecap:butt;stroke-linejoin:miter;stroke-opacity:1" />
    <path
       inkscape:export-ydpi="96"
       inkscape:export-xdpi="96"
       inkscape:connector-curvature="0"
       id="path1431-8"
       d="m 152.31349,100.29422 c -0.54902,-0.0738 -1.17597,-0.311057 -2.95667,-1.119115 -0.98681,-0.447803 -1.5174,-0.671769 -1.82077,-0.768561 -0.10106,-0.03224 -0.19638,-0.06587 -0.21182,-0.07472 -0.0154,-0.0088 0.17446,-0.22108 0.422,-0.471625 0.54659,-0.553233 0.61513,-0.67421 0.70828,-1.250159 l 0.0204,-0.126448 0.29669,0.276788 c 0.32931,0.307211 0.58165,0.474202 0.8507,0.562963 0.42323,0.139626 0.60601,0.148619 2.79972,0.137755 1.15302,-0.0057 2.09639,-0.0032 2.09639,0.0056 0,0.04166 -1.1034,1.947521 -1.29221,2.231984 -0.23026,0.346918 -0.47054,0.595798 -0.57519,0.595798 -0.0357,0 -0.0848,0.006 -0.10933,0.0122 -0.0245,0.007 -0.12718,0.001 -0.22824,-0.0125 z"
       style="display:inline;opacity:1;fill:#501616;fill-opacity:1;stroke:#000000;stroke-width:0.10022607;stroke-linejoin:round;stroke-miterlimit:4;stroke-dasharray:none;stroke-opacity:1;paint-order:markers fill stroke" />
    <path
       inkscape:export-ydpi="96"
       inkscape:export-xdpi="96"
       inkscape:connector-curvature="0"
       id="path1433-8"
       d="m 119.51302,101.39769 c -0.44755,-0.21172 -1.19112,-0.7768 -1.8708,-1.421721 -0.43867,-0.416231 -0.43819,-0.391521 -0.0119,-0.610775 0.58095,-0.298785 1.16872,-0.419643 2.87808,-0.591795 1.4178,-0.142789 1.87833,-0.231145 2.2826,-0.437935 0.20534,-0.105035 0.33327,-0.217255 0.89122,-0.781776 0.35831,-0.362526 0.71764,-0.70599 0.79852,-0.763255 l 0.14704,-0.104118 0.15815,0.330047 c 0.131,0.273373 0.28252,0.523247 0.58343,0.962133 0.0253,0.03686 0.009,0.06848 -0.0668,0.129858 -0.15003,0.121445 -0.44177,0.205056 -1.03567,0.296814 -0.63855,0.09866 -0.77915,0.143586 -1.09524,0.349982 -0.35618,0.232582 -0.66239,0.521011 -1.22637,1.15517 -0.86845,0.976511 -1.29781,1.328571 -1.8534,1.519721 -0.25919,0.0892 -0.3304,0.0852 -0.57887,-0.0324 z"
       style="display:inline;opacity:1;fill:#4f6f57;fill-opacity:1;stroke:#000000;stroke-width:0.10022607;stroke-linejoin:round;stroke-miterlimit:4;stroke-dasharray:none;stroke-opacity:1;paint-order:markers fill stroke" />
    <path
       inkscape:export-ydpi="96"
       inkscape:export-xdpi="96"
       sodipodi:nodetypes="cssssssssssssssssssssssssssc"
       inkscape:connector-curvature="0"
       id="path1402-4"
       d="m 124.9994,96.462105 c 0.25895,0.761207 0.73414,1.309601 1.23612,1.937704 0.39439,0.493491 0.98589,0.993888 1.43657,1.436573 0.48521,0.476598 1.00826,0.919808 1.57021,1.302938 0.6095,0.41556 1.27405,0.74699 1.9377,1.06908 0.48938,0.23751 0.99234,0.44842 1.50339,0.63476 0.6023,0.21962 1.20688,0.45249 1.83748,0.56795 0.87804,0.16077 1.7819,0.22432 2.6727,0.16704 0.99605,-0.064 2.00184,-0.22714 2.93996,-0.56794 0.99326,-0.36083 1.90053,-0.94041 2.77292,-1.5368 0.77688,-0.53109 1.45703,-1.19167 2.17157,-1.804071 0.77874,-0.66743 1.59278,-1.300122 2.3052,-2.03793 0.34071,-0.352855 0.54933,-0.419032 0.63476,-0.902035 0.21594,-1.220828 -0.43461,-2.626895 -0.90203,-3.775182 -0.44896,-1.102919 -0.99035,-2.149228 -1.5368,-3.207236 -0.61802,-1.196569 -1.24999,-2.392383 -2.00452,-3.507913 -0.65286,-0.965207 -1.28614,-1.981979 -2.17157,-2.739512 -0.7389,-0.632171 -1.60411,-1.169187 -2.53906,-1.436574 -0.76087,-0.217603 -1.58302,-0.161562 -2.37201,-0.100226 -0.8492,0.06602 -1.70587,0.208162 -2.50566,0.50113 -0.90799,0.332605 -1.70872,0.688415 -2.50565,1.236122 -0.75558,0.519294 -1.40916,1.103137 -2.07134,1.737252 -0.66602,0.6378 -1.40555,1.485264 -1.9377,2.238382 -0.4801,0.679442 -0.83835,1.441694 -1.16931,2.204973 -0.31382,0.723757 -0.55172,1.479857 -0.7684,2.238385 -0.23224,0.813026 -0.48018,1.631262 -0.56794,2.472243 -0.0647,0.62036 -0.16747,1.280392 0.0334,1.870887 z"
       style="display:inline;fill:#501616;stroke:#000000;stroke-width:0.79374999;stroke-linecap:butt;stroke-linejoin:miter;stroke-miterlimit:4;stroke-dasharray:none;stroke-opacity:1" />
    <path
       inkscape:export-ydpi="96"
       inkscape:export-xdpi="96"
       inkscape:connector-curvature="0"
       id="path1419-5"
       d="m 135.87448,103.16644 c -1.02063,-0.0701 -1.69942,-0.21837 -2.7584,-0.6027 -0.88766,-0.32215 -1.23101,-0.46911 -2.10063,-0.89911 -0.85856,-0.42453 -1.33694,-0.70718 -1.87948,-1.11049 -0.49409,-0.36729 -0.71473,-0.563115 -1.63885,-1.454501 -1.18618,-1.144174 -1.84462,-2.010135 -2.11437,-2.780754 -0.0665,-0.190059 -0.0758,-0.279689 -0.074,-0.718287 0.004,-1.046477 0.23241,-2.157928 0.85092,-4.14268 0.39935,-1.281451 1.05736,-2.695689 1.6444,-3.534231 0.72454,-1.034947 1.79692,-2.177872 2.96087,-3.155639 0.97816,-0.821705 1.76007,-1.288682 2.94025,-1.756004 0.88472,-0.350329 1.50452,-0.501633 2.50803,-0.612253 0.63774,-0.0703 1.88502,-0.08142 2.21062,-0.01971 1.16684,0.221145 2.56971,1.119308 3.48163,2.229059 0.71647,0.871902 1.79666,2.515405 2.51838,3.831706 1.76321,3.215789 2.98919,6.009564 3.18115,7.249263 0.0532,0.343613 0.0279,1.013084 -0.0434,1.146613 -0.0577,0.10812 -0.80018,0.847885 -1.26165,1.257033 -0.15618,0.138477 -0.58465,0.505396 -0.95215,0.815376 -0.36749,0.30998 -0.92176,0.786445 -1.23169,1.05881 -0.92853,0.815959 -1.35796,1.139479 -2.29292,1.727419 -0.91716,0.57674 -1.78506,0.96041 -2.65599,1.17411 -1.02279,0.25097 -2.2934,0.36557 -3.29269,0.29698 z"
       style="display:inline;opacity:1;fill:#4f6f57;fill-opacity:1;stroke:#4f6f57;stroke-width:0.10022607;stroke-linejoin:round;stroke-miterlimit:4;stroke-dasharray:none;stroke-opacity:1;paint-order:markers fill stroke" />
    <path
       inkscape:export-ydpi="96"
       inkscape:export-xdpi="96"
       inkscape:connector-curvature="0"
       id="path1427-2"
       d="m 147.11595,98.433217 c 1.32931,0.302435 4.57503,2.263933 5.61266,2.004523 0.63659,-0.15915 1.94372,-3.307462 2.3052,-3.307462 0.14477,0 -0.25614,0.167044 -0.40091,0.167044 -1.13443,0 -2.30629,0.03341 -3.44109,0.03341 -1.76748,0 -1.83299,-0.195966 -2.70611,-1.069078 -0.36516,-0.365162 -1.44216,1.939866 -1.36975,2.171563 z"
       style="display:inline;fill:#4f6f57;fill-opacity:1;stroke:#000000;stroke-width:0.26458332px;stroke-linecap:butt;stroke-linejoin:miter;stroke-opacity:1" />
    <path
       style="display:inline;fill:none;stroke:#ff5555;stroke-width:0.26458332px;stroke-linecap:butt;stroke-linejoin:miter;stroke-opacity:1"
       d="m 133.99407,106.59447 c 1.84108,-0.29444 4.24883,-1.65924 5.22588,-0.32159"
       id="path1133"
       inkscape:connector-curvature="0"
       sodipodi:nodetypes="cc"
       inkscape:export-xdpi="96"
       inkscape:export-ydpi="96" />
    <path
       style="display:inline;fill:#501616;stroke:#501616;stroke-width:0.26458332px;stroke-linecap:butt;stroke-linejoin:miter;stroke-opacity:1"
       d="m 126.43597,97.714345 c -0.58954,-0.10184 0.25507,3.360275 0.16948,3.360275 -0.23053,0 0.0754,-0.45536 0.0945,-0.68508 0.0678,-0.812975 0.0473,-1.650125 0.0473,-2.456855 0,-0.21597 0.05,3.304505 0.18899,3.165565 0.739,-0.73901 0.44884,-2.572065 0.44884,-2.551345 0,0.25796 0.0781,2.834825 0.0945,2.834825 0.1175,0 0.087,-2.574975 0.11812,-2.574975 0.91398,0 -0.81949,2.740335 0.0945,2.740335 0.57364,0 0.62211,-3.094685 0.61421,-3.094685 -0.0881,0 -0.0472,1.47534 -0.0472,1.559155 0,0.40978 -0.24251,1.51818 0.0472,1.22843 0.56011,-0.56011 -0.19137,-3.734905 0.25986,-3.283675 0.33267,0.33266 -0.16158,2.608845 -0.18899,3.047435 -0.026,0.41661 0.44105,1.25205 0.0236,1.25205 -0.45261,0 -2.15,-5.173555 -1.46465,-5.173555 0.31399,0 -0.32083,5.041715 0.0236,5.386165 0.0534,0.0534 -0.23624,-4.161725 -0.23624,-3.992385 0,0.86622 0.44885,1.823905 0.44885,2.716715 0,0.34648 -0.34648,1.03943 0,1.03943 0.30051,0 0.0819,-2.19698 0.21261,-2.19698 0.69269,0 0.12171,1.38782 0.30711,2.05524"
       id="path1672"
       inkscape:connector-curvature="0"
       inkscape:export-xdpi="96"
       inkscape:export-ydpi="96" />
    <path
       style="display:inline;fill:#501616;stroke:#501616;stroke-width:0.26458332px;stroke-linecap:butt;stroke-linejoin:miter;stroke-opacity:1"
       d="m 144.46482,98.074425 c 0.29676,6.578945 0.42522,2.988325 0.42522,-1.01581 0,-0.12129 0.0613,4.866675 0.33073,4.417605 0.88335,-1.47225 -0.40748,-4.370355 0.16537,-4.370355 0.1533,0 -0.17093,4.824765 0.0945,4.559345 1.15427,-1.15427 -0.0209,-4.393985 0.44884,-4.393985 0.0613,0 -0.0602,4.307095 0.0709,4.110505 0.25888,-0.38832 0.83861,-4.665675 0.30711,-5.197185 -0.63234,-0.63234 0.38427,5.253095 -0.44885,5.669655 -0.25887,0.12943 -0.55256,-0.37452 -0.66146,-0.51972 -0.35468,-0.47292 -0.21261,-1.406005 -0.21261,-1.960755 0,-3.25721 1.751,-3.32075 1.01581,-2.29148 -0.39874,0.55824 -1.07145,0.89847 -1.32292,1.27567"
       id="path1674"
       inkscape:connector-curvature="0"
       inkscape:export-xdpi="96"
       inkscape:export-ydpi="96" />
    <path
       style="display:inline;fill:none;stroke:#000000;stroke-width:0.26458332px;stroke-linecap:butt;stroke-linejoin:miter;stroke-opacity:1"
       d="m 124.99939,96.462105 c -1.04118,0.0187 -1.4922,1.60918 -2.67269,1.9043 -1.59718,0.39929 -4.22224,0.17978 -5.24517,1.20271 -0.081,0.081 2.18285,2.235565 2.83974,2.071345 1.59705,-0.39926 2.24178,-2.240085 3.57473,-2.906555 0.63071,-0.31536 1.92427,-0.0265 2.23839,-0.96886 0.24083,-0.72249 -0.35086,-0.9779 -0.735,-1.30294"
       id="path1423"
       inkscape:connector-curvature="0"
       inkscape:export-xdpi="96"
       inkscape:export-ydpi="96" />
    <path
       style="display:inline;opacity:1;fill:#4f6f57;fill-opacity:1;stroke:#000000;stroke-width:0.10022607;stroke-linejoin:round;stroke-miterlimit:4;stroke-dasharray:none;stroke-opacity:1;paint-order:markers fill stroke"
       d="m 152.31349,100.29423 c -0.54902,-0.0738 -1.17597,-0.311065 -2.95667,-1.119125 -0.98681,-0.4478 -1.5174,-0.67176 -1.82077,-0.76856 -0.10106,-0.0322 -0.19638,-0.0659 -0.21182,-0.0747 -0.0154,-0.009 0.17446,-0.22108 0.422,-0.47162 0.54659,-0.55324 0.61513,-0.67421 0.70827,-1.25016 l 0.0205,-0.12645 0.2967,0.27679 c 0.3293,0.30721 0.58164,0.4742 0.8507,0.56296 0.42323,0.13963 0.60601,0.14862 2.79972,0.13776 1.15302,-0.006 2.09639,-0.003 2.09639,0.006 0,0.0417 -1.1034,1.94752 -1.29221,2.23198 -0.23026,0.346915 -0.47054,0.595805 -0.57519,0.595805 -0.0357,0 -0.0849,0.005 -0.10933,0.0122 -0.0245,0.007 -0.12718,0.001 -0.22824,-0.0125 z"
       id="path1431"
       inkscape:connector-curvature="0"
       inkscape:export-xdpi="96"
       inkscape:export-ydpi="96" />
    <path
       style="display:inline;opacity:1;fill:#4f6f57;fill-opacity:1;stroke:#000000;stroke-width:0.10022607;stroke-linejoin:round;stroke-miterlimit:4;stroke-dasharray:none;stroke-opacity:1;paint-order:markers fill stroke"
       d="m 119.51302,101.3977 c -0.44755,-0.21172 -1.19112,-0.7768 -1.8708,-1.421725 -0.43867,-0.41623 -0.43819,-0.39152 -0.0119,-0.61078 0.58094,-0.29878 1.16871,-0.41964 2.87808,-0.59179 1.4178,-0.14279 1.87832,-0.23115 2.2826,-0.43794 0.20534,-0.10503 0.33327,-0.21725 0.89122,-0.78177 0.35831,-0.36253 0.71764,-0.70599 0.79852,-0.76326 l 0.14704,-0.10412 0.15815,0.33005 c 0.13099,0.27337 0.28252,0.52325 0.58343,0.96213 0.0253,0.0369 0.009,0.0685 -0.0668,0.12986 -0.15003,0.12145 -0.44177,0.20506 -1.03567,0.29682 -0.63855,0.0987 -0.77915,0.14358 -1.09523,0.34998 -0.35618,0.23258 -0.66239,0.52101 -1.22637,1.15517 -0.86845,0.976515 -1.29782,1.328575 -1.85341,1.519725 -0.25918,0.0892 -0.3304,0.0852 -0.57886,-0.0323 z"
       id="path1433"
       inkscape:connector-curvature="0"
       inkscape:export-xdpi="96"
       inkscape:export-ydpi="96" />
    <path
       style="display:inline;opacity:1;fill:#4f6f57;fill-opacity:1;stroke:#4f6f57;stroke-width:0.10022607;stroke-linejoin:round;stroke-miterlimit:4;stroke-dasharray:none;stroke-opacity:1;paint-order:markers fill stroke"
       d="m 135.87448,103.16645 c -1.02063,-0.0701 -1.69942,-0.21837 -2.7584,-0.6027 -0.88767,-0.32215 -1.23102,-0.46911 -2.10063,-0.89911 -0.85856,-0.42453 -1.33694,-0.70718 -1.87949,-1.11049 -0.49408,-0.36729 -0.71473,-0.563125 -1.63884,-1.454505 -1.18618,-1.14418 -1.84462,-2.01014 -2.11437,-2.78076 -0.0665,-0.19006 -0.0758,-0.27968 -0.074,-0.71828 0.004,-1.04648 0.2324,-2.15793 0.85092,-4.14268 0.39934,-1.28145 1.05735,-2.69569 1.6444,-3.53423 0.72454,-1.03495 1.79692,-2.17787 2.96086,-3.15564 0.97817,-0.82171 1.76007,-1.288683 2.94025,-1.756005 0.88473,-0.350329 1.50453,-0.501633 2.50803,-0.612253 0.63774,-0.0703 1.88502,-0.08142 2.21062,-0.01971 1.16684,0.221145 2.56971,1.119308 3.48163,2.229058 0.71647,0.8719 1.79667,2.5154 2.51839,3.8317 1.76321,3.21579 2.98918,6.00957 3.18115,7.24927 0.0532,0.34361 0.0279,1.01308 -0.0434,1.14661 -0.0577,0.10812 -0.80018,0.84788 -1.26165,1.25703 -0.15619,0.13848 -0.58466,0.5054 -0.95215,0.81538 -0.3675,0.30998 -0.92176,0.78644 -1.2317,1.05881 -0.92852,0.815965 -1.35795,1.139475 -2.29291,1.727425 -0.91717,0.57674 -1.78506,0.9604 -2.656,1.17411 -1.02278,0.25097 -2.29339,0.36557 -3.29269,0.29697 z"
       id="path1419"
       inkscape:connector-curvature="0"
       inkscape:export-xdpi="96"
       inkscape:export-ydpi="96" />
    <path
       style="display:inline;fill:none;stroke:#000000;stroke-width:0.26458332px;stroke-linecap:butt;stroke-linejoin:miter;stroke-opacity:1"
       d="m 147.11594,98.433225 c 1.32932,0.30243 4.57504,2.263935 5.61267,2.004525 0.6366,-0.15915 1.94372,-3.307465 2.3052,-3.307465 0.14477,0 -0.25613,0.16704 -0.40091,0.16704 -1.13443,0 -2.30629,0.0334 -3.44109,0.0334 -1.76748,0 -1.83299,-0.19596 -2.70611,-1.06908 -0.36516,-0.36516 -1.44216,1.93987 -1.36976,2.17157 z"
       id="path1427"
       inkscape:connector-curvature="0"
       inkscape:export-xdpi="96"
       inkscape:export-ydpi="96" />
    <path
       style="display:inline;fill:none;stroke:#000000;stroke-width:0.26458332px;stroke-linecap:butt;stroke-linejoin:miter;stroke-opacity:1"
       d="m 127.44475,87.886895 c 1.68314,4.24325 2.72579,8.71254 2.59029,13.597665"
       id="path4300"
       inkscape:connector-curvature="0"
       sodipodi:nodetypes="cc"
       inkscape:export-xdpi="96"
       inkscape:export-ydpi="96" />
    <path
       style="display:inline;fill:none;stroke:#000000;stroke-width:0.26458332px;stroke-linecap:butt;stroke-linejoin:miter;stroke-opacity:1"
       d="m 129.6959,85.394555 c 2.61428,5.50296 3.57501,11.43461 3.29633,17.687605"
       id="path4302"
       inkscape:connector-curvature="0"
       sodipodi:nodetypes="cc"
       inkscape:export-xdpi="96"
       inkscape:export-ydpi="96" />
    <path
       style="display:inline;fill:none;stroke:#000000;stroke-width:0.26458332px;stroke-linecap:butt;stroke-linejoin:miter;stroke-opacity:1"
       d="m 132.42944,83.223806 c 2.85924,6.414249 2.79923,13.226569 3.44504,19.942644"
       id="path4304"
       inkscape:connector-curvature="0"
       sodipodi:nodetypes="cc"
       inkscape:export-xdpi="96"
       inkscape:export-ydpi="96" />
    <path
       style="display:inline;fill:none;stroke:#000000;stroke-width:0.26458332px;stroke-linecap:butt;stroke-linejoin:miter;stroke-opacity:1"
       d="m 138.86129,81.776639 c 1.72828,6.534676 4.15416,12.836826 3.45712,20.179941"
       id="path4308"
       inkscape:connector-curvature="0"
       sodipodi:nodetypes="cc"
       inkscape:export-xdpi="96"
       inkscape:export-ydpi="96" />
    <path
       style="display:inline;fill:none;stroke:#000000;stroke-width:0.26458332px;stroke-linecap:butt;stroke-linejoin:miter;stroke-opacity:1"
       d="m 142.64001,84.751375 c 2.31567,5.35487 4.27449,10.59079 3.10618,14.78433"
       id="path4310"
       inkscape:connector-curvature="0"
       sodipodi:nodetypes="cc"
       inkscape:export-xdpi="96"
       inkscape:export-ydpi="96" />
    <path
       style="display:inline;fill:none;stroke:#222b00;stroke-width:0.26458332px;stroke-linecap:butt;stroke-linejoin:miter;stroke-opacity:1"
       d="m 125.88357,92.389195 c 5.0945,-4.30969 9.88261,-7.44582 16.75644,-7.63782"
       id="path4312"
       inkscape:connector-curvature="0"
       sodipodi:nodetypes="cc"
       inkscape:export-xdpi="96"
       inkscape:export-ydpi="96" />
    <path
       style="display:inline;fill:none;stroke:#000000;stroke-width:0.26458332px;stroke-linecap:butt;stroke-linejoin:miter;stroke-opacity:1"
       d="m 124.99939,96.462105 c 5.77561,-6.17284 12.06615,-10.3632 19.97216,-8.33401"
       id="path4314"
       inkscape:connector-curvature="0"
       sodipodi:nodetypes="cc"
       inkscape:export-xdpi="96"
       inkscape:export-ydpi="96" />
    <path
       style="display:inline;fill:none;stroke:#000000;stroke-width:0.26458332px;stroke-linecap:butt;stroke-linejoin:miter;stroke-opacity:1"
       d="m 126.43597,99.301845 c 5.97107,-4.11329 10.80832,-10.67139 19.98275,-7.87743"
       id="path4316"
       inkscape:connector-curvature="0"
       sodipodi:nodetypes="cc"
       inkscape:export-xdpi="96"
       inkscape:export-ydpi="96" />
    <path
       style="display:inline;fill:none;stroke:#000000;stroke-width:0.26458332px;stroke-linecap:butt;stroke-linejoin:miter;stroke-opacity:1"
       d="m 127.97124,100.89063 c 6.39675,-3.009795 12.68987,-6.641465 19.49265,-7.215065"
       id="path4318"
       inkscape:connector-curvature="0"
       sodipodi:nodetypes="cc"
       inkscape:export-xdpi="96"
       inkscape:export-ydpi="96" />
    <path
       style="display:inline;fill:none;stroke:#000000;stroke-width:0.26458332px;stroke-linecap:butt;stroke-linejoin:miter;stroke-opacity:1"
       d="m 132.99223,103.08216 14.12371,-4.648935"
       id="path4320"
       inkscape:connector-curvature="0"
       inkscape:export-xdpi="96"
       inkscape:export-ydpi="96" />
    <path
       style="display:inline;opacity:0.53500001;fill:#222b00;fill-opacity:1;stroke:none;stroke-width:0.07130777;stroke-linejoin:round;stroke-miterlimit:4;stroke-dasharray:none;stroke-opacity:1;paint-order:markers fill stroke"
       d="m 131.63116,102.37758 c -0.6119,-0.0592 -1.01886,-0.18438 -1.65376,-0.50886 -0.53218,-0.272 -0.73804,-0.39608 -1.2594,-0.75913 -0.51474,-0.35843 -0.80154,-0.59707 -1.12682,-0.93759 -0.29622,-0.310105 -0.42851,-0.475435 -0.98255,-1.228035 -0.71115,-0.96602 -1.10591,-1.69715 -1.26764,-2.34779 -0.0399,-0.16046 -0.0454,-0.23614 -0.0444,-0.60645 0.003,-0.88354 0.13933,-1.82193 0.51016,-3.49766 0.23942,-1.08192 0.63392,-2.27597 0.98587,-2.98395 0.43439,-0.8738 1.07732,-1.83877 1.77515,-2.6643 0.58645,-0.69376 1.05523,-1.08803 1.76279,-1.48259 0.53042,-0.29579 0.90201,-0.42353 1.50365,-0.51693 0.38235,-0.0594 1.13014,-0.0687 1.32535,-0.0166 0.69956,0.18672 1.54063,0.94503 2.08736,1.882 0.42955,0.73614 1.07717,2.12375 1.50987,3.2351 1.05711,2.71509 1.79212,5.07387 1.90721,6.12055 0.0319,0.29011 0.0167,0.85535 -0.026,0.96809 -0.0346,0.0913 -0.47973,0.71587 -0.7564,1.06131 -0.0936,0.11691 -0.35052,0.4267 -0.57085,0.68842 -0.22033,0.26172 -0.55263,0.66399 -0.73845,0.89395 -0.55668,0.688925 -0.81414,0.962065 -1.37468,1.458465 -0.54988,0.48694 -1.07021,0.81087 -1.59237,0.9913 -0.6132,0.2119 -1.37497,0.30865 -1.97409,0.25074 z"
       id="path1419-3"
       inkscape:connector-curvature="0"
       inkscape:export-xdpi="96"
       inkscape:export-ydpi="96" />
    <path
       style="display:inline;fill:none;stroke:#000000;stroke-width:0.26458332px;stroke-linecap:butt;stroke-linejoin:miter;stroke-opacity:1"
       d="m 135.62595,81.924179 c 2.12726,7.103403 4.99279,14.137593 3.85911,21.546701"
       id="path4306"
       inkscape:connector-curvature="0"
       sodipodi:nodetypes="cc"
       inkscape:export-xdpi="96"
       inkscape:export-ydpi="96" />
  </g>
  <g
     inkscape:label="siloutte"
     inkscape:groupmode="layer"
     id="layer1"
     style="display:inline">
    <path
       style="display:inline;opacity:1;fill:#501616;fill-opacity:1;stroke:#803300;stroke-width:0.08047857;stroke-linejoin:round;stroke-miterlimit:4;stroke-dasharray:none;stroke-opacity:1;paint-order:markers fill stroke"
       d="m 140.89329,137.25809 c -0.46619,-0.0573 -1.06595,-0.22098 -1.38543,-0.37804 -0.65116,-0.32013 -0.91623,-0.81658 -0.76348,-1.42995 0.1393,-0.55936 0.57395,-1.23991 1.25139,-1.95935 l 0.35174,-0.37356 -0.0958,-0.10474 c -0.11061,-0.12088 -0.12601,-0.12293 0.3565,0.0474 0.31988,0.11294 0.9513,0.22093 1.29397,0.2213 0.12031,1.3e-4 0.42002,0.0206 0.66603,0.0456 0.44073,0.0447 0.44863,0.0473 0.53804,0.17779 0.14644,0.21371 0.8276,0.85211 1.39113,1.30381 1.0827,0.86785 1.38054,1.23954 1.22546,1.52932 -0.16393,0.30631 -1.2181,0.69007 -2.37114,0.86319 -0.53953,0.081 -1.99034,0.11477 -2.45837,0.0572 z"
       id="path948"
       inkscape:connector-curvature="0"
       inkscape:export-xdpi="96"
       inkscape:export-ydpi="96" />
    <path
       style="display:inline;opacity:1;fill:#4f6f57;fill-opacity:1;stroke:#803300;stroke-width:0.02853874;stroke-linejoin:round;stroke-miterlimit:4;stroke-dasharray:none;stroke-opacity:1;paint-order:markers fill stroke"
       d="m 134.22595,134.27469 c -0.10162,-0.0302 -0.36384,-0.0692 -0.58271,-0.0866 -1.74341,-0.13922 -2.95982,-0.50058 -3.55302,-1.05549 -0.33102,-0.30965 -0.39489,-0.55123 -0.39345,-1.48819 0.001,-0.69284 0.0433,-0.99536 0.30348,-2.17545 0.27899,-1.2653 0.3409,-1.69249 0.37471,-2.58575 0.0296,-0.78161 0.11348,-1.20468 0.52426,-2.64352 0.53401,-1.87046 0.70194,-2.72071 0.73189,-3.70558 l 0.0163,-0.53618 0.17358,0.019 c 0.65898,0.0721 1.60745,0.36258 2.57509,0.78861 0.74612,0.32851 1.96174,0.94037 1.96178,0.98743 1.1e-4,0.15366 0.0667,1.85653 0.11346,2.90152 0.15645,3.49563 0.13273,5.38652 -0.0864,6.88856 -0.21282,1.45877 -0.63324,2.36028 -1.23515,2.64853 -0.14674,0.0703 -0.21025,0.0828 -0.45481,0.0899 -0.21659,0.006 -0.32822,-0.005 -0.46901,-0.0467 z"
       id="path981"
       inkscape:connector-curvature="0"
       inkscape:export-xdpi="96"
       inkscape:export-ydpi="96" />
    <path
       style="display:inline;opacity:1;fill:#803300;fill-opacity:1;stroke:#803300;stroke-width:0.02853874;stroke-linejoin:round;stroke-miterlimit:4;stroke-dasharray:none;stroke-opacity:1;paint-order:markers fill stroke"
       d="m 130.43121,137.0423 c -1.85767,-0.0818 -3.22056,-0.31837 -3.51168,-0.60949 -0.23945,-0.23945 0.28341,-0.65544 1.44089,-1.14639 0.20091,-0.0852 0.64029,-0.25766 0.97642,-0.38322 0.99869,-0.37306 0.94868,-0.34786 0.97304,-0.49052 0.0146,-0.0855 0.0103,-0.12854 -0.0142,-0.14371 -0.027,-0.0167 -0.0204,-0.0782 0.0289,-0.26898 0.0352,-0.13604 0.0685,-0.25191 0.0741,-0.2575 0.006,-0.006 0.0984,0.0294 0.20613,0.0778 0.7643,0.34304 1.83714,0.57217 3.12374,0.66714 0.1407,0.0104 0.34805,0.0439 0.46078,0.0745 0.11272,0.0306 0.29907,0.0582 0.4141,0.0614 l 0.20914,0.006 0.0319,0.17055 c 0.0204,0.10878 0.11394,0.33528 0.2583,0.62536 0.25615,0.51467 0.30371,0.6496 0.27772,0.78811 -0.0728,0.3881 -0.96909,0.66264 -2.5758,0.789 -0.39668,0.0312 -1.97266,0.058 -2.37349,0.0403 z"
       id="path983"
       inkscape:connector-curvature="0"
       inkscape:export-xdpi="96"
       inkscape:export-ydpi="96" />
    <path
       style="display:inline;opacity:1;fill:#4f6f57;fill-opacity:1;stroke:#803300;stroke-width:0.02853874;stroke-linejoin:round;stroke-miterlimit:4;stroke-dasharray:none;stroke-opacity:1;paint-order:markers fill stroke"
       d="m 143.8194,133.16427 c -0.15634,-0.0137 -0.59124,-0.0567 -0.96645,-0.0957 -0.37521,-0.0389 -0.88047,-0.0841 -1.12279,-0.10031 -1.84423,-0.12349 -2.75668,-1.08651 -3.01847,-3.18575 -0.0652,-0.52295 -0.0476,-2.49288 0.0333,-3.72368 0.0509,-0.77478 0.0686,-1.30205 0.0699,-2.08211 7.9e-4,-0.57452 0.003,-1.0446 0.005,-1.04462 0.002,-1e-5 0.0916,0.0335 0.19897,0.0744 1.16977,0.44596 1.99946,0.61867 2.8942,0.60247 l 0.49269,-0.009 0.33525,0.76748 c 1.95197,4.46848 2.62895,7.36075 1.99937,8.54195 -0.049,0.0919 -0.11234,0.1882 -0.14077,0.21392 -0.065,0.0589 -0.38388,0.0755 -0.78063,0.0408 z"
       id="path989"
       inkscape:connector-curvature="0"
       inkscape:export-xdpi="96"
       inkscape:export-ydpi="96" />
    <path
       style="display:inline;fill:none;stroke:#000000;stroke-width:0.26458332px;stroke-linecap:butt;stroke-linejoin:miter;stroke-opacity:1"
       d="m 130.61864,108.77629 c -2.4697,-0.21077 -2.50533,2.42824 -2.1878,4.45293 0.56245,3.5864 2.59618,-1.03795 5.73972,-1.64249"
       id="path1019"
       inkscape:connector-curvature="0"
       sodipodi:nodetypes="csc"
       inkscape:export-xdpi="96"
       inkscape:export-ydpi="96" />
    <path
       style="display:inline;fill:none;stroke:#000000;stroke-width:0.26458332px;stroke-linecap:butt;stroke-linejoin:miter;stroke-opacity:1"
       d="m 136.95967,111.62381 c 4.34493,-3.11373 5.30435,-0.54977 6.00982,0.56696"
       id="path1041"
       inkscape:connector-curvature="0"
       inkscape:export-xdpi="96"
       inkscape:export-ydpi="96" />
    <path
       style="display:inline;fill:none;stroke:#000000;stroke-width:0.26458332px;stroke-linecap:butt;stroke-linejoin:miter;stroke-opacity:1"
       d="m 142.49702,123.43556 c -3.58356,0.51031 -7.47671,-3.38893 -10.99694,-3.596"
       id="path883"
       inkscape:connector-curvature="0"
       inkscape:export-xdpi="96"
       inkscape:export-ydpi="96" />
    <path
       style="display:inline;fill:#4f6f57;fill-opacity:1;stroke:#000000;stroke-width:0.29005694px;stroke-linecap:butt;stroke-linejoin:miter;stroke-opacity:1"
       d="m 131.49357,119.82929 c -0.59875,-0.79901 -0.43304,-5.19922 -0.48213,-6.3136"
       id="path885"
       inkscape:connector-curvature="0"
       inkscape:export-xdpi="96"
       inkscape:export-ydpi="96"
       sodipodi:nodetypes="cc" />
    <path
       style="display:inline;fill:none;stroke:#000000;stroke-width:0.26458332px;stroke-linecap:butt;stroke-linejoin:miter;stroke-opacity:1"
       d="m 131.50008,119.83956 c 0.12273,2.70181 -1.27288,5.19393 -1.26952,6.949"
       id="path893"
       inkscape:connector-curvature="0"
       inkscape:export-xdpi="96"
       inkscape:export-ydpi="96"
       sodipodi:nodetypes="cc" />
    <path
       style="display:inline;fill:none;stroke:#000000;stroke-width:0.26458332px;stroke-linecap:butt;stroke-linejoin:miter;stroke-opacity:1"
       d="m 130.23056,126.78856 c -0.0134,2.3372 -0.9053,3.45237 -0.64373,5.67568"
       id="path901"
       inkscape:connector-curvature="0"
       inkscape:export-xdpi="96"
       inkscape:export-ydpi="96"
       sodipodi:nodetypes="cc" />
    <path
       style="display:inline;fill:none;stroke:#000000;stroke-width:0.26458332px;stroke-linecap:butt;stroke-linejoin:miter;stroke-opacity:1"
       d="m 129.58683,132.46424 c 0.11477,1.76731 4.41158,1.89152 4.41158,1.89152 3.80297,1.39372 2.51298,-8.68026 2.51298,-12.71213"
       id="path903"
       inkscape:connector-curvature="0"
       inkscape:export-xdpi="96"
       inkscape:export-ydpi="96"
       sodipodi:nodetypes="csc" />
    <path
       style="display:inline;fill:none;stroke:#000000;stroke-width:0.26458332px;stroke-linecap:butt;stroke-linejoin:miter;stroke-opacity:1"
       d="m 138.64954,122.76254 c 0.3522,4.08922 -1.80783,10.37368 3.47451,10.37368 0.30498,0 2.34731,0.32539 2.53906,0.13363 1.7631,-1.7631 -2.18951,-9.74646 -2.16609,-9.83429"
       id="path905"
       inkscape:connector-curvature="0"
       sodipodi:nodetypes="cscc"
       inkscape:export-xdpi="96"
       inkscape:export-ydpi="96" />
    <path
       style="display:inline;fill:none;stroke:#000000;stroke-width:0.26458332px;stroke-linecap:butt;stroke-linejoin:miter;stroke-opacity:1"
       d="m 140.35056,132.87802 c -5.93926,5.85439 5.5713,4.91099 5.5713,3.32574 0,-0.93019 -2.281,-1.60853 -2.7288,-3.04148"
       id="path911"
       inkscape:connector-curvature="0"
       inkscape:export-xdpi="96"
       inkscape:export-ydpi="96"
       sodipodi:nodetypes="csc" />
    <path
       style="display:inline;fill:none;stroke:#000000;stroke-width:0.26458332px;stroke-linecap:butt;stroke-linejoin:miter;stroke-opacity:1"
       d="m 136.4279,110.05272 c 3.66055,-3.07609 2.48507,-1.6628 4.03636,0.17055"
       id="path1122"
       inkscape:connector-curvature="0"
       inkscape:export-xdpi="96"
       inkscape:export-ydpi="96" />
    <path
       style="display:inline;fill:none;stroke:#000000;stroke-width:0.26458332px;stroke-linecap:butt;stroke-linejoin:miter;stroke-opacity:1"
       d="m 136.4279,110.05272 c 0.31374,0.51467 0.53197,1.56303 0.53177,1.57109"
       id="path932"
       inkscape:connector-curvature="0"
       inkscape:export-xdpi="96"
       inkscape:export-ydpi="96" />
    <path
       style="display:inline;fill:none;stroke:#000000;stroke-width:0.27134746px;stroke-linecap:butt;stroke-linejoin:miter;stroke-opacity:1"
       d="m 130.61847,108.7758 c 0.9545,0.23355 1.54012,-0.0481 2.3928,-0.22561"
       id="path934"
       inkscape:connector-curvature="0"
       inkscape:export-xdpi="96"
       inkscape:export-ydpi="96"
       sodipodi:nodetypes="cc" />
    <path
       style="display:inline;fill:none;stroke:#000000;stroke-width:0.26458332px;stroke-linecap:butt;stroke-linejoin:miter;stroke-opacity:1"
       d="m 135.83437,114.06965 c 0.24316,2.28627 3.02504,1.70162 4.35035,3.13738"
       id="path977"
       inkscape:connector-curvature="0"
       sodipodi:nodetypes="cc"
       inkscape:export-xdpi="96"
       inkscape:export-ydpi="96" />
    <path
       style="display:inline;fill:none;stroke:#000000;stroke-width:0.26458332px;stroke-linecap:butt;stroke-linejoin:miter;stroke-opacity:1"
       d="m 136.95967,111.62381 c -0.1898,-0.14106 4.65702,2.87365 4.83302,4.45764"
       id="path980"
       inkscape:connector-curvature="0"
       sodipodi:nodetypes="cc"
       inkscape:export-xdpi="96"
       inkscape:export-ydpi="96" />
    <path
       style="display:inline;fill:none;stroke:#000000;stroke-width:0.26458332px;stroke-linecap:butt;stroke-linejoin:miter;stroke-opacity:1"
       d="m 141.63189,117.68941 c 0.7764,-0.56936 1.57278,-3.8242 1.3376,-5.49864"
       id="path982"
       inkscape:connector-curvature="0"
       sodipodi:nodetypes="cc"
       inkscape:export-xdpi="96"
       inkscape:export-ydpi="96" />
    <path
       style="display:inline;fill:none;stroke:#000000;stroke-width:0.26458332px;stroke-linecap:butt;stroke-linejoin:miter;stroke-opacity:1"
       d="m 140.18472,117.20703 c 1.65557,1.96854 1.58901,-0.96441 1.60797,-1.12558"
       id="path991"
       inkscape:connector-curvature="0"
       inkscape:export-xdpi="96"
       inkscape:export-ydpi="96" />
    <path
       style="display:inline;fill:none;stroke:#000000;stroke-width:0.26458332px;stroke-linecap:butt;stroke-linejoin:miter;stroke-opacity:1"
       d="m 142.31528,117.12663 c 0.77815,1.70422 0.79597,5.22649 0.18174,6.30893"
       id="path995"
       inkscape:connector-curvature="0"
       inkscape:export-xdpi="96"
       inkscape:export-ydpi="96" />
    <path
       style="display:inline;fill:#501616;stroke:#000000;stroke-width:0.26458332px;stroke-linecap:butt;stroke-linejoin:miter;stroke-opacity:1"
       d="m 130.37337,133.4181 c -0.61101,1.45571 0.18513,0.80282 -0.31268,1.05173 -0.45298,0.22649 -4.03429,1.28119 -3.24045,2.07503 0.77783,0.77783 7.55472,0.97279 8.55593,-0.0284 0.55301,-0.55301 -0.5208,-1.32201 -0.39795,-2.01818"
       id="path978"
       inkscape:connector-curvature="0"
       sodipodi:nodetypes="ccccc"
       inkscape:export-xdpi="96"
       inkscape:export-ydpi="96" />
    <path
       style="display:inline;fill:none;stroke:#000000;stroke-width:0.39687499px;stroke-linecap:butt;stroke-linejoin:miter;stroke-opacity:1"
       d="m 134.1787,112.32987 c 0.71878,0.22215 1.56506,1.27635 2.29135,1.80896"
       id="path973"
       inkscape:connector-curvature="0"
       inkscape:export-xdpi="96"
       inkscape:export-ydpi="96" />
    <path
       style="display:inline;fill:#ff8080;fill-opacity:1;stroke:#ff5555;stroke-width:0.26458332px;stroke-linecap:butt;stroke-linejoin:miter;stroke-opacity:1"
       d="m 133.06949,109.81039 c -1.37217,3.42042 0.58475,2.79197 2.17075,1.20597 0.3234,-0.3234 -1.16577,-0.26622 -1.16577,-0.72358 0,-0.88232 -0.74714,-0.40015 -1.04518,-0.24119"
       id="path941"
       inkscape:connector-curvature="0"
       inkscape:export-xdpi="96"
       inkscape:export-ydpi="96" />
    <path
       style="fill:none;stroke:#000000;stroke-width:0.26458332px;stroke-linecap:butt;stroke-linejoin:miter;stroke-opacity:1"
       d="m 133.06949,109.81039 c -0.2091,-1.84808 -0.057,-1.50892 1.09981,-2.08733"
       id="path874"
       inkscape:connector-curvature="0"
       inkscape:export-xdpi="96"
       inkscape:export-ydpi="96" />
    <path
       style="opacity:1;fill:#4f6f57;fill-opacity:1;stroke:#4f6f57;stroke-width:0.12677413;stroke-linejoin:round;stroke-miterlimit:4;stroke-dasharray:none;stroke-opacity:1;paint-order:markers fill stroke"
       d="m 487.87777,432.3651 c -1.08479,-0.47181 -1.83308,-2.8773 -2.2505,-7.23455 -0.50636,-5.28567 0.0976,-8.9571 1.84632,-11.22377 1.36138,-1.76461 3.78524,-2.56629 6.45849,-2.13612 2.36081,0.37989 4.43682,0.21064 7.51154,-0.61241 l 0.66291,-0.17745 v 0.74123 c 0,0.40768 0.0596,1.29747 0.13234,1.97731 l 0.13234,1.23608 -0.50682,1.41413 c -1.15616,3.2259 -1.49149,5.67762 -0.97232,7.10903 0.0479,0.13205 -0.20708,0.36073 -0.84208,0.75523 -1.30574,0.8112 -2.9506,2.07594 -5.83527,4.4868 -2.86369,2.39333 -4.09513,3.27159 -5.06527,3.61257 -0.79043,0.27781 -0.75556,0.27639 -1.27168,0.0519 z"
       id="path876"
       inkscape:connector-curvature="0"
       transform="scale(0.26458333)"
       inkscape:export-xdpi="96"
       inkscape:export-ydpi="96" />
    <path
       style="opacity:1;fill:#4f6f57;fill-opacity:1;stroke:#4f6f57;stroke-width:0.12677413;stroke-linejoin:round;stroke-miterlimit:4;stroke-dasharray:none;stroke-opacity:1;paint-order:markers fill stroke"
       d="m 536.11721,442.65148 c 0.17438,-0.81367 0.35768,-3.17886 0.30427,-3.92625 -0.11669,-1.63304 -1.36863,-3.59077 -3.97742,-6.2197 -2.58096,-2.60089 -6.88253,-6.04429 -10.98616,-8.79441 -1.75609,-1.17687 -1.79003,-1.20836 -1.79495,-1.66485 -0.009,-0.81511 0.15451,-1.00972 1.54348,-1.83943 3.77913,-2.25749 6.80507,-3.31798 9.50005,-3.32946 1.49007,-0.006 2.19935,0.14459 3.45018,0.73419 1.64701,0.77635 3.1472,2.41213 4.89915,5.34193 l 0.86831,1.4521 -0.0132,2.33598 c -0.0251,4.45886 -1.11845,10.00787 -2.76344,14.02576 -0.58345,1.42507 -1.15651,2.47305 -1.03029,1.88414 z"
       id="path878"
       inkscape:connector-curvature="0"
       transform="scale(0.26458333)"
       inkscape:export-xdpi="96"
       inkscape:export-ydpi="96" />
    <path
       style="opacity:1;fill:#4f6f57;fill-opacity:1;stroke:#4f6f57;stroke-width:0.12677413;stroke-linejoin:round;stroke-miterlimit:4;stroke-dasharray:none;stroke-opacity:1;paint-order:markers fill stroke"
       d="m 532.53738,444.70751 c -0.24307,-0.11609 -1.01015,-0.78977 -1.70463,-1.49706 -2.38616,-2.4302 -3.5796,-3.10584 -8.33376,-4.71804 -3.95809,-1.34224 -5.38105,-2.03948 -6.5726,-3.22049 -0.97375,-0.96514 -1.43589,-1.76929 -1.76634,-3.07357 -0.29507,-1.16461 -0.2312,-1.24695 0.51026,-0.6578 0.34724,0.2759 0.65975,0.50214 0.69448,0.50274 0.0347,6.1e-4 0.25996,-0.28769 0.50053,-0.64064 l 0.4374,-0.64175 -0.30344,-0.22888 -0.30343,-0.22888 0.84833,-0.91628 c 0.98642,-1.06542 2.00281,-2.9624 2.48288,-4.63402 0.16454,-0.57295 0.33856,-1.04172 0.38672,-1.04172 0.11341,0 3.67026,2.46462 4.97925,3.45024 3.27221,2.46386 5.3497,4.21997 7.26271,6.13922 1.71103,1.71661 2.61348,2.87573 3.24034,4.16195 l 0.45574,0.9351 -0.0743,1.52715 c -0.11581,2.38107 -0.64205,4.37503 -1.27087,4.81548 -0.34522,0.24179 -0.92131,0.22895 -1.46929,-0.0327 z"
       id="path880"
       inkscape:connector-curvature="0"
       transform="scale(0.26458333)"
       inkscape:export-xdpi="96"
       inkscape:export-ydpi="96" />
    <path
       style="opacity:1;fill:#4f6f57;fill-opacity:1;stroke:#4f6f57;stroke-width:0.12677413;stroke-linejoin:round;stroke-miterlimit:4;stroke-dasharray:none;stroke-opacity:1;paint-order:markers fill stroke"
       d="m 519.70157,418.69192 c -0.20244,-1.44786 -0.60159,-2.37559 -1.32543,-3.08063 -0.33673,-0.32799 -0.61224,-0.62337 -0.61224,-0.65641 0,-0.0927 3.22432,-2.65216 4.49018,-3.56431 1.32776,-0.95675 2.72715,-1.69532 3.21217,-1.69532 0.59176,0 0.96687,0.45412 1.90659,2.30819 0.50053,0.98756 1.18153,2.23408 1.51333,2.77006 l 0.60328,0.9745 -0.46477,0.0783 c -0.89298,0.15037 -2.82277,0.68828 -3.66067,1.02038 -1.09313,0.43326 -3.27271,1.52219 -4.50474,2.25059 -0.53332,0.3153 -0.98119,0.57328 -0.99527,0.57328 -0.0141,0 -0.0872,-0.44037 -0.16243,-0.97859 z"
       id="path882"
       inkscape:connector-curvature="0"
       transform="scale(0.26458333)"
       inkscape:export-xdpi="96"
       inkscape:export-ydpi="96" />
    <path
       style="opacity:1;fill:#4f6f57;fill-opacity:1;stroke:#4f6f57;stroke-width:0.12677413;stroke-linejoin:round;stroke-miterlimit:4;stroke-dasharray:none;stroke-opacity:1;paint-order:markers fill stroke"
       d="m 503.44972,414.53237 c -0.0429,-0.19501 -0.11146,-1.23529 -0.15233,-2.31174 -0.0947,-2.49485 -0.0413,-2.62523 1.36741,-3.33429 0.53894,-0.27128 1.00151,-0.47016 1.02793,-0.44194 0.0264,0.0282 0.0701,1.37238 0.097,2.98705 l 0.049,2.93576 h -0.39393 c -0.35416,0 -1.16643,0.20593 -1.7122,0.43408 -0.15317,0.064 -0.22454,-0.004 -0.28287,-0.26892 z"
       id="path884"
       inkscape:connector-curvature="0"
       transform="scale(0.26458333)"
       inkscape:export-xdpi="96"
       inkscape:export-ydpi="96" />
    <path
       style="opacity:1;fill:#4f6f57;fill-opacity:1;stroke:#4f6f57;stroke-width:0.12677413;stroke-linejoin:round;stroke-miterlimit:4;stroke-dasharray:none;stroke-opacity:1;paint-order:markers fill stroke"
       d="m 533.61517,465.99288 c -2.23549,-0.28649 -5.27072,-1.13416 -8.08572,-2.25816 -2.38686,-0.95305 -4.01032,-1.71681 -9.76927,-4.59597 -7.28312,-3.64116 -9.86568,-4.76884 -13.02207,-5.68611 -1.39425,-0.40517 -3.40628,-0.82832 -4.81873,-1.01341 -0.93082,-0.12198 -0.91216,-0.0213 -1.55709,-8.3999 -0.48901,-6.35289 -0.56387,-7.82394 -0.57284,-11.25715 l -0.0103,-3.9493 1.55376,-1.24605 c 0.85458,-0.68533 2.1711,-1.65966 2.92562,-2.16519 1.36715,-0.91599 1.37317,-0.91847 1.75926,-0.72587 0.91198,0.45496 2.38439,0.2738 3.87003,-0.47614 0.41646,-0.21024 0.78168,-0.38224 0.81159,-0.38224 0.13387,0 0.31609,0.80375 0.25334,1.11747 -0.0569,0.28431 -0.011,0.37406 0.25239,0.49408 0.18757,0.0855 0.46293,0.42526 0.65991,0.81435 0.5514,1.08913 1.56229,2.51158 2.33732,3.28888 0.74857,0.75077 2.04508,1.48057 2.63705,1.48439 0.23786,0.002 0.2711,0.0302 0.13486,0.11645 -0.15467,0.0979 -0.14118,0.27562 0.0932,1.22919 0.65054,2.64641 2.08178,4.29876 4.84244,5.59053 0.57944,0.27113 2.38937,0.94803 4.02207,1.50423 1.6327,0.5562 3.34967,1.18227 3.81549,1.39128 1.50242,0.67409 2.74645,1.57931 4.15604,3.02417 1.52016,1.5582 2.50024,2.16833 3.48307,2.16833 0.64478,0 0.95199,-0.13526 1.51315,-0.66625 0.32151,-0.30422 0.44184,-0.353 0.58259,-0.23619 0.14223,0.11804 0.27712,0.039 0.6805,-0.39858 0.27671,-0.3002 0.66253,-0.81784 0.85738,-1.15032 0.40982,-0.69931 0.41352,-0.69634 0.89759,0.72083 1.11624,3.26791 1.68693,7.35054 1.68923,12.08458 0.002,3.78412 -0.3796,6.93809 -1.05889,8.75562 -0.24593,0.65801 -0.34702,0.78997 -0.6569,0.85745 -0.53902,0.11739 -3.2608,0.0951 -4.27608,-0.035 z"
       id="path886"
       inkscape:connector-curvature="0"
       transform="scale(0.26458333)"
       inkscape:export-xdpi="96"
       inkscape:export-ydpi="96" />
    <path
       style="display:inline;fill:none;stroke:#000000;stroke-width:0.26458332px;stroke-linecap:butt;stroke-linejoin:miter;stroke-opacity:1"
       d="m 133.76303,113.73556 c -0.90548,2.52852 -0.26673,2.83974 1.93771,2.83974 0.0245,-0.82191 0.005,-1.73398 0.13363,-2.50565"
       id="path1536"
       inkscape:connector-curvature="0"
       inkscape:export-xdpi="96"
       inkscape:export-ydpi="96" />
    <path
       style="display:inline;fill:none;stroke:#000000;stroke-width:0.26458332px;stroke-linecap:butt;stroke-linejoin:miter;stroke-opacity:1"
       d="m 133.76303,113.73556 c 0.53406,-0.16924 1.57882,0.2182 2.07134,0.33409"
       id="path1538"
       inkscape:connector-curvature="0"
       inkscape:export-xdpi="96"
       inkscape:export-ydpi="96" />
    <path
       style="display:inline;fill:none;stroke:#000000;stroke-width:0.26458332px;stroke-linecap:butt;stroke-linejoin:miter;stroke-opacity:1"
       d="m 133.52837,117.24898 c -0.90548,2.52851 -0.26673,2.83974 1.9377,2.83974 0.0245,-0.82192 0.005,-1.73399 0.13364,-2.50566"
       id="path1536-3"
       inkscape:connector-curvature="0"
       inkscape:export-xdpi="96"
       inkscape:export-ydpi="96" />
    <path
       style="display:inline;fill:none;stroke:#000000;stroke-width:0.26458332px;stroke-linecap:butt;stroke-linejoin:miter;stroke-opacity:1"
       d="m 133.52837,117.24898 c 0.53406,-0.16925 1.57882,0.2182 2.07134,0.33408"
       id="path1538-8"
       inkscape:connector-curvature="0"
       inkscape:export-xdpi="96"
       inkscape:export-ydpi="96" />
    <path
       style="display:inline;fill:none;stroke:#000000;stroke-width:0.26458332px;stroke-linecap:butt;stroke-linejoin:miter;stroke-opacity:1"
       d="m 140.51239,117.50031 c 0.90548,2.52852 0.19991,2.45554 -2.00452,2.45554 -0.0245,-0.82192 -0.005,-1.73399 -0.13364,-2.50565"
       id="path1536-8-7"
       inkscape:connector-curvature="0"
       inkscape:export-xdpi="96"
       inkscape:export-ydpi="96"
       sodipodi:nodetypes="ccc" />
    <path
       style="display:inline;fill:none;stroke:#000000;stroke-width:0.26458332px;stroke-linecap:butt;stroke-linejoin:miter;stroke-opacity:1"
       d="m 140.18472,117.20703 c -0.53406,-0.16925 -1.31797,0.12728 -1.81049,0.24317"
       id="path1538-0-6"
       inkscape:connector-curvature="0"
       inkscape:export-xdpi="96"
       inkscape:export-ydpi="96"
       sodipodi:nodetypes="cc" />
  </g>
  <g
     inkscape:groupmode="layer"
     id="layer11"
     inkscape:label="fucile"
     style="display:inline">
    <path
       style="display:inline;fill:#501616;stroke:#000000;stroke-width:0.26458332px;stroke-linecap:butt;stroke-linejoin:miter;stroke-opacity:1"
       d="m 136.4745,105.70184 c 0.56262,1.92987 0.73598,6.54761 -1.06907,7.45014 -1.73395,0.86697 -1.46854,-5.88176 -1.34454,-6.62432 -0.0668,-1.94045 2.55531,-2.19903 2.38021,-0.59196"
       id="path1825"
       inkscape:connector-curvature="0"
       sodipodi:nodetypes="cccc"
       inkscape:export-xdpi="96"
       inkscape:export-ydpi="96" />
    <ellipse
       style="display:inline;opacity:1;fill:#666666;fill-opacity:1;stroke:#808080;stroke-width:0.24882352;stroke-linejoin:round;stroke-miterlimit:4;stroke-dasharray:none;stroke-opacity:1;paint-order:markers fill stroke"
       id="path942"
       cx="135.45723"
       cy="109.00407"
       rx="1.2368317"
       ry="2.9849715"
       inkscape:export-xdpi="96"
       inkscape:export-ydpi="96" />
    <path
       style="fill:#1a1a1a;stroke:#000000;stroke-width:0.26458332px;stroke-linecap:butt;stroke-linejoin:miter;stroke-opacity:1"
       d="m 134.75473,107.49234 c -1.31609,7.02387 3.73359,0.76196 0,0"
       id="path1821"
       inkscape:connector-curvature="0"
       inkscape:export-xdpi="96"
       inkscape:export-ydpi="96" />
    <path
       style="fill:#666666;fill-opacity:1;stroke:#808080;stroke-width:0.16648841px;stroke-linecap:butt;stroke-linejoin:miter;stroke-opacity:1"
       d="m 135.9567,106.1962 c 0.004,-0.0516 -0.005,-0.41133 -0.0319,-0.83996 -0.027,-0.42864 0.17002,-1.15781 -0.14054,-1.25332 -0.0947,-0.0292 -0.42741,-0.0164 -0.63741,-0.0645 -0.22358,-0.0511 -0.0808,0.67255 -0.092,2.05991 0.28635,0.0405 0.69187,-0.0401 0.90513,0.0591"
       id="path947"
       inkscape:connector-curvature="0"
       sodipodi:nodetypes="csssc"
       inkscape:export-xdpi="96"
       inkscape:export-ydpi="96" />
  </g>
  <g
     inkscape:groupmode="layer"
     id="layer12"
     inkscape:label="mano"
     style="display:inline">
    <path
       style="display:inline;fill:#ff8080;fill-opacity:1;stroke:#ff5555;stroke-width:0.26458332px;stroke-linecap:butt;stroke-linejoin:miter;stroke-opacity:1"
       d="m 133.69367,110.59828 c 2.3349,8.08954 5.26407,-1.23961 2.69179,-0.6913 -0.80968,0.17259 -0.0644,2.15283 -1.19536,0.82159 -1.06921,-0.42936 -0.80741,-0.17472 -1.49643,-0.13029 z"
       id="path936"
       inkscape:connector-curvature="0"
       sodipodi:nodetypes="cscc"
       inkscape:export-xdpi="96"
       inkscape:export-ydpi="96" />
  </g>
</svg>
